<svg width="32" height="32" viewBox="0 0 32 32" fill="none" xmlns="http://www.w3.org/2000/svg">
<rect width="32" height="32" rx="7" fill="#136DA3"/>
<g clip-path="url(#clip0_3825_85)">
<path d="M12.2419 7.92969H8.28937C7.57839 7.92969 7 8.50807 7 9.21905V13.1716C7 13.8826 7.57839 14.4609 8.28937 14.4609H12.2419C12.9529 14.4609 13.5312 13.8826 13.5312 13.1716V9.21905C13.5312 8.50807 12.9529 7.92969 12.2419 7.92969Z" fill="white"/>
<path d="M12.2419 16.5391H8.28937C7.57839 16.5391 7 17.1174 7 17.8284V21.7809C7 22.4919 7.57839 23.0703 8.28937 23.0703H12.2419C12.9529 23.0703 13.5312 22.4919 13.5312 21.7809V17.8284C13.5312 17.1174 12.9529 16.5391 12.2419 16.5391Z" fill="white"/>
<path d="M25.4062 10.8984H15.9062C15.5784 10.8984 15.3125 10.6326 15.3125 10.3047C15.3125 9.97679 15.5784 9.71094 15.9062 9.71094H25.4062C25.7341 9.71094 26 9.97679 26 10.3047C26 10.6326 25.7341 10.8984 25.4062 10.8984Z" fill="white"/>
<path d="M22.1406 13.125H15.9062C15.5784 13.125 15.3125 12.8591 15.3125 12.5312C15.3125 12.2034 15.5784 11.9375 15.9062 11.9375H22.1406C22.4685 11.9375 22.7344 12.2034 22.7344 12.5312C22.7344 12.8591 22.4685 13.125 22.1406 13.125Z" fill="white"/>
<path d="M25.4062 19.3594H15.9062C15.5784 19.3594 15.3125 19.0935 15.3125 18.7656C15.3125 18.4377 15.5784 18.1719 15.9062 18.1719H25.4062C25.7341 18.1719 26 18.4377 26 18.7656C26 19.0935 25.7341 19.3594 25.4062 19.3594Z" fill="white"/>
<path d="M22.1406 21.7344H15.9062C15.5784 21.7344 15.3125 21.4685 15.3125 21.1406C15.3125 20.8127 15.5784 20.5469 15.9062 20.5469H22.1406C22.4685 20.5469 22.7344 20.8127 22.7344 21.1406C22.7344 21.4685 22.4685 21.7344 22.1406 21.7344Z" fill="white"/>
</g>
<defs>
<clipPath id="clip0_3825_85">
<rect width="19" height="19" fill="white" transform="translate(7 6)"/>
</clipPath>
</defs>
</svg>
