<svg width="32" height="32" viewBox="0 0 32 32" fill="none" xmlns="http://www.w3.org/2000/svg">
<rect width="32" height="32" rx="7" fill="#136DA3"/>
<g clip-path="url(#clip0_9059_88)">
<path d="M22.4294 9.67024C22.4294 8.96783 22.4294 8.30831 22.4294 7.64343C22.4294 7.17694 22.8963 6.86595 23.3149 7.04826C23.5618 7.15549 23.712 7.34852 23.712 7.62198C23.712 8.91957 23.712 10.2172 23.712 11.5147C23.712 11.8633 23.433 12.1367 23.0841 12.1367C21.7907 12.1367 20.4974 12.1367 19.2093 12.1367C18.8498 12.1367 18.5761 11.8525 18.5761 11.4987C18.5761 11.1394 18.8444 10.8606 19.2093 10.8606C20.0465 10.8606 20.8838 10.8606 21.7693 10.8606C21.6619 10.748 21.5868 10.6622 21.5063 10.5818C20.2559 9.3378 18.7585 8.58177 17.0036 8.36729C13.102 7.89008 9.57607 10.2547 8.54029 14.0402C8.36855 14.6676 8.29878 15.311 8.28268 15.9598C8.27195 16.3673 8.00898 16.6461 7.62794 16.6407C7.26301 16.6354 7.00004 16.3458 7.00004 15.9544C6.9893 12.3298 9.297 8.95174 12.678 7.64343C16.0537 6.33512 19.7084 7.06434 22.3059 9.55764C22.3328 9.58445 22.365 9.61126 22.4294 9.67024Z" fill="white"/>
<path d="M9.57171 22.3244C9.57171 23.0322 9.57171 23.6917 9.57171 24.3512C9.57171 24.6676 9.33557 24.941 9.03504 24.9839C8.71303 25.0322 8.4125 24.8445 8.3159 24.5389C8.29443 24.4692 8.28906 24.3941 8.28906 24.3244C8.28906 23.059 8.28906 21.7936 8.28906 20.5335C8.28906 20.1207 8.55203 19.8579 8.96527 19.8579C10.2318 19.8579 11.4984 19.8579 12.7595 19.8579C13.1513 19.8579 13.4304 20.1314 13.4304 20.5014C13.4304 20.8713 13.1459 21.1394 12.7542 21.1394C11.9975 21.1394 11.2408 21.1394 10.4841 21.1394C10.4197 21.1394 10.3553 21.1394 10.2855 21.1394C10.2748 21.1555 10.264 21.1716 10.2533 21.1877C10.5485 21.4611 10.8329 21.7507 11.1442 22.0027C12.62 23.1823 14.3213 23.7507 16.205 23.7024C19.7739 23.6113 22.8114 21.0751 23.5413 17.5845C23.6486 17.0751 23.6701 16.5496 23.7077 16.0349C23.7399 15.6274 23.9867 15.3539 24.3731 15.3646C24.7381 15.37 24.9957 15.6595 24.9957 16.0563C25.001 20.0349 22.2962 23.6274 18.4053 24.6622C15.137 25.5308 12.2282 24.7694 9.73271 22.4853C9.68978 22.4477 9.64684 22.4048 9.56634 22.3351L9.57171 22.3244Z" fill="white"/>
</g>
<defs>
<clipPath id="clip0_9059_88">
<rect width="18" height="18" fill="white" transform="translate(7 7)"/>
</clipPath>
</defs>
</svg>
