<svg width="32" height="32" viewBox="0 0 32 32" fill="none" xmlns="http://www.w3.org/2000/svg">
<rect width="32" height="32" rx="7" fill="#136DA3"/>
<path d="M15.8438 15.5975C17.2997 15.5975 18.5603 15.0753 19.5905 14.0451C20.6204 13.015 21.1428 11.7546 21.1428 10.2986C21.1428 8.84301 20.6206 7.58248 19.5903 6.55208C18.5601 5.52217 17.2996 5 15.8438 5C14.3878 5 13.1274 5.52217 12.0973 6.55224C11.0673 7.58232 10.5449 8.84284 10.5449 10.2986C10.5449 11.7546 11.0673 13.0152 12.0973 14.0452C13.1277 15.0751 14.3883 15.5975 15.8438 15.5975ZM13.0091 7.46382C13.7995 6.67343 14.7267 6.28923 15.8438 6.28923C16.9609 6.28923 17.8882 6.67343 18.6788 7.46382C19.4692 8.25437 19.8535 9.18172 19.8535 10.2986C19.8535 11.4158 19.4692 12.3429 18.6788 13.1335C17.8882 13.9241 16.9609 14.3083 15.8438 14.3083C14.727 14.3083 13.7998 13.9239 13.0091 13.1335C12.2185 12.3431 11.8342 11.4158 11.8342 10.2986C11.8342 9.18172 12.2185 8.25437 13.0091 7.46382Z" fill="white"/>
<path d="M25.1149 21.9169C25.0852 21.4882 25.0251 21.0206 24.9367 20.5268C24.8474 20.0293 24.7324 19.559 24.5948 19.1291C24.4524 18.6848 24.2592 18.2461 24.0201 17.8256C23.7721 17.3892 23.4808 17.0092 23.1538 16.6965C22.8119 16.3694 22.3933 16.1064 21.9092 15.9145C21.4268 15.7237 20.8922 15.627 20.3204 15.627C20.0958 15.627 19.8786 15.7191 19.4592 15.9922C19.201 16.1606 18.899 16.3553 18.562 16.5706C18.2738 16.7543 17.8834 16.9263 17.4012 17.0821C16.9307 17.2343 16.453 17.3115 15.9814 17.3115C15.5101 17.3115 15.0324 17.2343 14.5616 17.0821C14.0798 16.9265 13.6893 16.7544 13.4016 16.5708C13.0677 16.3575 12.7656 16.1628 12.5036 15.9921C12.0845 15.719 11.8673 15.6268 11.6427 15.6268C11.0707 15.6268 10.5363 15.7237 10.054 15.9147C9.5703 16.1062 9.15152 16.3692 8.80928 16.6967C8.48232 17.0095 8.19093 17.3894 7.94319 17.8256C7.70435 18.2461 7.51099 18.6847 7.36865 19.1293C7.23119 19.5591 7.11621 20.0293 7.02692 20.5268C6.93829 21.0199 6.87837 21.4877 6.84866 21.9174C6.81946 22.3375 6.80469 22.7747 6.80469 23.2165C6.80469 24.3649 7.16975 25.2946 7.88965 25.9803C8.60065 26.6569 9.54126 26.9999 10.6855 26.9999H21.2786C22.4225 26.9999 23.3631 26.6569 24.0743 25.9803C24.7943 25.2951 25.1594 24.3651 25.1594 23.2163C25.1592 22.7731 25.1443 22.3358 25.1149 21.9169ZM23.1853 25.0462C22.7155 25.4933 22.0918 25.7107 21.2784 25.7107H10.6855C9.87192 25.7107 9.2482 25.4933 8.77856 25.0464C8.31783 24.6078 8.09392 24.0091 8.09392 23.2165C8.09392 22.8043 8.10751 22.3972 8.1347 22.0065C8.16122 21.6231 8.21544 21.202 8.29584 20.7545C8.37523 20.3126 8.47627 19.8978 8.59645 19.5224C8.71176 19.1623 8.86903 18.8058 9.06407 18.4624C9.25021 18.1351 9.46439 17.8543 9.70071 17.6281C9.92177 17.4164 10.2004 17.2432 10.5287 17.1133C10.8323 16.9931 11.1736 16.9273 11.544 16.9174C11.5892 16.9414 11.6696 16.9872 11.7998 17.0722C12.0648 17.2449 12.3703 17.4419 12.708 17.6576C13.0887 17.9003 13.5791 18.1195 14.1651 18.3087C14.7641 18.5024 15.3751 18.6007 15.9815 18.6007C16.588 18.6007 17.1991 18.5024 17.7978 18.3088C18.3843 18.1193 18.8745 17.9003 19.2557 17.6573C19.6013 17.4364 19.8982 17.245 20.1633 17.0722C20.2935 16.9874 20.3739 16.9414 20.4191 16.9174C20.7897 16.9273 21.1309 16.9931 21.4347 17.1133C21.7628 17.2432 22.0415 17.4166 22.2625 17.6281C22.4989 17.8542 22.713 18.135 22.8992 18.4626C23.0944 18.8058 23.2518 19.1625 23.367 19.5222C23.4873 19.8982 23.5885 20.3128 23.6677 20.7544C23.748 21.2027 23.8024 21.624 23.8289 22.0067V22.007C23.8562 22.3962 23.87 22.8031 23.8702 23.2165C23.87 24.0092 23.6461 24.6078 23.1853 25.0462Z" fill="white"/>
</svg>
