<svg width="32" height="32" viewBox="0 0 32 32" fill="none" xmlns="http://www.w3.org/2000/svg">
<rect width="32" height="32" rx="7" fill="#136DA3"/>
<g clip-path="url(#clip0_2027_91)">
<path d="M26.3555 27H23.7773C23.4214 27 23.1328 26.7114 23.1328 26.3555C23.1328 25.9995 23.4214 25.7109 23.7773 25.7109H25.7109V23.7773C25.7109 23.4214 25.9995 23.1328 26.3555 23.1328C26.7114 23.1328 27 23.4214 27 23.7773V26.3555C27 26.7114 26.7114 27 26.3555 27Z" fill="white"/>
<path d="M8.22266 27H5.64453C5.28858 27 5 26.7114 5 26.3555V23.7773C5 23.4214 5.28858 23.1328 5.64453 23.1328C6.00048 23.1328 6.28906 23.4214 6.28906 23.7773V25.7109H8.22266C8.57861 25.7109 8.86719 25.9995 8.86719 26.3555C8.86719 26.7114 8.57861 27 8.22266 27Z" fill="white"/>
<path d="M26.3555 8.86719C25.9995 8.86719 25.7109 8.57861 25.7109 8.22266V6.28906H23.7773C23.4214 6.28906 23.1328 6.00048 23.1328 5.64453C23.1328 5.28858 23.4214 5 23.7773 5H26.3555C26.7114 5 27 5.28858 27 5.64453V8.22266C27 8.57861 26.7114 8.86719 26.3555 8.86719Z" fill="white"/>
<path d="M5.64453 8.86719C5.28858 8.86719 5 8.57861 5 8.22266V5.64453C5 5.28858 5.28858 5 5.64453 5H8.22266C8.57861 5 8.86719 5.28858 8.86719 5.64453C8.86719 6.00048 8.57861 6.28906 8.22266 6.28906H6.28906V8.22266C6.28906 8.57861 6.00048 8.86719 5.64453 8.86719Z" fill="white"/>
<path d="M10.1992 16C10.1992 12.902 12.6404 10.3634 15.7002 10.2069C13.3174 10.2974 10.7706 11.2277 8.31389 12.9091C6.3995 14.2194 5.21683 15.5122 5.16742 15.5667C4.94419 15.8124 4.94419 16.1876 5.16742 16.4333C5.21683 16.4878 6.39946 17.7806 8.31385 19.0909C10.7706 20.7723 13.3174 21.7026 15.7002 21.7931C12.6404 21.6366 10.1992 19.098 10.1992 16Z" fill="white"/>
<path d="M16 14.4961C15.1707 14.4961 14.4961 15.1707 14.4961 16C14.4961 16.8293 15.1707 17.5039 16 17.5039C16.8293 17.5039 17.5039 16.8293 17.5039 16C17.5039 15.1707 16.8293 14.4961 16 14.4961Z" fill="white"/>
<path d="M15.709 10.2065C15.7319 10.2053 15.755 10.2047 15.7781 10.2039C15.7551 10.2046 15.732 10.2056 15.709 10.2065Z" fill="white"/>
<path d="M20.5117 16C20.5117 13.5122 18.4878 11.4883 16 11.4883C13.5122 11.4883 11.4883 13.5122 11.4883 16C11.4883 18.4878 13.5122 20.5117 16 20.5117C18.4878 20.5117 20.5117 18.4878 20.5117 16ZM16 18.793C14.46 18.793 13.207 17.54 13.207 16C13.207 14.46 14.46 13.207 16 13.207C17.54 13.207 18.793 14.46 18.793 16C18.793 17.54 17.54 18.793 16 18.793Z" fill="white"/>
<path d="M16.2908 10.2065C16.2677 10.2056 16.2447 10.2046 16.2217 10.2039C16.2447 10.2047 16.2678 10.2053 16.2908 10.2065Z" fill="white"/>
<path d="M26.8326 15.5667C26.7832 15.5122 25.6006 14.2194 23.6862 12.9091C21.2294 11.2277 18.6826 10.2974 16.2998 10.2069C19.3596 10.3635 21.8008 12.902 21.8008 16C21.8008 19.098 19.3596 21.6366 16.2998 21.7931C18.6826 21.7027 21.2294 20.7723 23.6861 19.0909C25.6005 17.7806 26.7831 16.4878 26.8326 16.4333C27.0558 16.1876 27.0558 15.8125 26.8326 15.5667Z" fill="white"/>
</g>
<defs>
<clipPath id="clip0_2027_91">
<rect width="22" height="22" fill="white" transform="translate(5 5)"/>
</clipPath>
</defs>
</svg>
