<svg width="32" height="32" viewBox="0 0 32 32" fill="none" xmlns="http://www.w3.org/2000/svg">
<rect width="32" height="32" rx="7" fill="#136DA3"/>
<g clip-path="url(#clip0_3829_86)">
<path d="M11.6328 10.9581H8.5C8.22382 10.9581 8 10.7341 8 10.4581C8 10.182 8.22382 9.95807 8.5 9.95807H11.6328C11.909 9.95807 12.1328 10.182 12.1328 10.4581C12.1328 10.7341 11.909 10.9581 11.6328 10.9581Z" fill="white"/>
<path d="M13.423 12.7482C12.1602 12.7482 11.1328 11.7208 11.1328 10.458C11.1328 9.19502 12.1602 8.16766 13.423 8.16766C14.6859 8.16766 15.7133 9.19502 15.7133 10.458C15.7133 11.7208 14.6859 12.7482 13.423 12.7482ZM13.423 9.16769C12.7116 9.16769 12.1328 9.74659 12.1328 10.458C12.1328 11.1695 12.7116 11.7481 13.423 11.7481C14.1345 11.7481 14.7133 11.1695 14.7133 10.458C14.7133 9.74659 14.1345 9.16769 13.423 9.16769Z" fill="white"/>
<path d="M24.5003 10.9581H17.0273C16.7512 10.9581 16.5273 10.7341 16.5273 10.4581C16.5273 10.182 16.7512 9.95807 17.0273 9.95807H24.5002C24.7764 9.95807 25.0002 10.182 25.0002 10.4581C25.0002 10.7341 24.7765 10.9581 24.5003 10.9581Z" fill="white"/>
<path d="M20.1359 18.7901C18.873 18.7901 17.8457 17.7628 17.8457 16.5C17.8457 15.2373 18.8731 14.2099 20.1359 14.2099C21.3988 14.2099 22.4262 15.2373 22.4262 16.5C22.4262 17.7628 21.3988 18.7901 20.1359 18.7901ZM20.1359 15.2099C19.4245 15.2099 18.8457 15.7886 18.8457 16.5C18.8457 17.2115 19.4245 17.7901 20.1359 17.7901C20.8474 17.7901 21.4262 17.2115 21.4262 16.5C21.4262 15.7886 20.8474 15.2099 20.1359 15.2099Z" fill="white"/>
<path d="M16.5324 17H8.5C8.22382 17 8 16.776 8 16.5C8 16.224 8.22382 16 8.5 16H16.5324C16.8086 16 17.0324 16.224 17.0324 16.5C17.0324 16.776 16.8086 17 16.5324 17Z" fill="white"/>
<path d="M24.4992 17H21.9258C21.6496 17 21.4258 16.776 21.4258 16.5C21.4258 16.224 21.6496 16 21.9258 16H24.4992C24.7754 16 24.9992 16.224 24.9992 16.5C24.9992 16.776 24.7754 17 24.4992 17Z" fill="white"/>
<path d="M12.8644 24.8323C11.6016 24.8323 10.5742 23.8049 10.5742 22.5419C10.5742 21.2791 11.6016 20.2518 12.8644 20.2518C14.1273 20.2518 15.1547 21.2791 15.1547 22.5419C15.1547 23.8049 14.1273 24.8323 12.8644 24.8323ZM12.8644 21.2518C12.153 21.2518 11.5742 21.8304 11.5742 22.5419C11.5742 23.2533 12.153 23.8322 12.8644 23.8322C13.5759 23.8322 14.1547 23.2533 14.1547 22.5419C14.1547 21.8304 13.5759 21.2518 12.8644 21.2518Z" fill="white"/>
<path d="M24.4992 23.0419H16.4668C16.1906 23.0419 15.9668 22.818 15.9668 22.5419C15.9668 22.2659 16.1906 22.0419 16.4668 22.0419H24.4992C24.7754 22.0419 24.9992 22.2659 24.9992 22.5419C24.9992 22.818 24.7754 23.0419 24.4992 23.0419Z" fill="white"/>
<path d="M11.0734 23.042H8.5C8.22382 23.042 8 22.818 8 22.5419C8 22.2659 8.22382 22.0419 8.5 22.0419H11.0734C11.3496 22.0419 11.5734 22.2659 11.5734 22.5419C11.5734 22.818 11.3496 23.042 11.0734 23.042Z" fill="white"/>
</g>
<defs>
<clipPath id="clip0_3829_86">
<rect width="17" height="17" fill="white" transform="translate(8 8)"/>
</clipPath>
</defs>
</svg>
