<svg width="36" height="36" viewBox="0 0 36 36" fill="none" xmlns="http://www.w3.org/2000/svg">
<rect width="36" height="36" rx="7" fill="#C3CFD6"/>
<path d="M5.33065 22.4879C5.10707 22.4914 4.89401 22.5835 4.73828 22.744C4.58255 22.9044 4.49688 23.1201 4.50009 23.3437V28.9687C4.50009 30.3564 5.64362 31.5 7.03134 31.5H12.6563C12.7681 31.5016 12.8792 31.4809 12.9829 31.4392C13.0867 31.3975 13.1811 31.3356 13.2607 31.2571C13.3403 31.1786 13.4036 31.0851 13.4467 30.9819C13.4899 30.8788 13.5121 30.768 13.5121 30.6562C13.5121 30.5444 13.4899 30.4337 13.4467 30.3306C13.4036 30.2274 13.3403 30.1339 13.2607 30.0553C13.1811 29.9768 13.0867 29.9149 12.9829 29.8732C12.8792 29.8316 12.7681 29.8109 12.6563 29.8125H7.03134C6.5493 29.8125 6.18759 29.4508 6.18759 28.9687V23.3437C6.18921 23.2308 6.16814 23.1187 6.12563 23.0141C6.08313 22.9094 6.02005 22.8144 5.94014 22.7346C5.86022 22.6548 5.7651 22.5918 5.66041 22.5494C5.55572 22.5071 5.44358 22.4861 5.33065 22.4879Z" fill="black"/>
<path d="M30.6434 22.4879C30.4198 22.4914 30.2067 22.5835 30.051 22.744C29.8953 22.9044 29.8096 23.1201 29.8128 23.3437V28.9687C29.8128 29.4508 29.4511 29.8125 28.9691 29.8125H23.344C23.2322 29.8109 23.1212 29.8316 23.0175 29.8732C22.9137 29.9149 22.8193 29.9768 22.7397 30.0553C22.66 30.1339 22.5968 30.2274 22.5537 30.3306C22.5105 30.4337 22.4883 30.5444 22.4883 30.6562C22.4883 30.768 22.5105 30.8788 22.5537 30.9819C22.5968 31.0851 22.66 31.1786 22.7397 31.2571C22.8193 31.3356 22.9137 31.3975 23.0175 31.4392C23.1212 31.4809 23.2322 31.5016 23.344 31.5H28.9691C30.3568 31.5 31.5003 30.3564 31.5003 28.9687V23.3437C31.5019 23.2308 31.4809 23.1187 31.4383 23.0141C31.3958 22.9094 31.3328 22.8144 31.2529 22.7346C31.1729 22.6548 31.0778 22.5918 30.9731 22.5494C30.8684 22.5071 30.7563 22.4861 30.6434 22.4879Z" fill="black"/>
<path d="M23.344 4.50002C23.2322 4.49844 23.1212 4.5191 23.0175 4.56079C22.9137 4.60248 22.8193 4.66438 22.7397 4.74289C22.66 4.82139 22.5968 4.91494 22.5537 5.0181C22.5105 5.12125 22.4883 5.23196 22.4883 5.34377C22.4883 5.45559 22.5105 5.56629 22.5537 5.66945C22.5968 5.7726 22.66 5.86615 22.7397 5.94466C22.8193 6.02316 22.9137 6.08506 23.0175 6.12676C23.1212 6.16845 23.2322 6.1891 23.344 6.18752H28.969C29.4511 6.18752 29.8128 6.54924 29.8128 7.03127V12.6563C29.8112 12.7681 29.8319 12.8791 29.8736 12.9828C29.9153 13.0866 29.9772 13.181 30.0557 13.2607C30.1342 13.3403 30.2277 13.4035 30.3309 13.4467C30.434 13.4898 30.5447 13.512 30.6565 13.512C30.7684 13.512 30.8791 13.4898 30.9822 13.4467C31.0854 13.4035 31.1789 13.3403 31.2574 13.2607C31.3359 13.181 31.3978 13.0866 31.4395 12.9828C31.4812 12.8791 31.5019 12.7681 31.5003 12.6563V7.03127C31.5003 5.64356 30.3568 4.50002 28.969 4.50002H23.344Z" fill="black"/>
<path d="M7.03133 4.50002C5.64362 4.50002 4.50008 5.64356 4.50008 7.03127V12.6563C4.4985 12.7681 4.51916 12.8791 4.56085 12.9828C4.60254 13.0866 4.66444 13.181 4.74295 13.2607C4.82146 13.3403 4.915 13.4035 5.01816 13.4467C5.12131 13.4898 5.23202 13.512 5.34383 13.512C5.45565 13.512 5.56636 13.4898 5.66951 13.4467C5.77266 13.4035 5.86621 13.3403 5.94472 13.2607C6.02323 13.181 6.08512 13.0866 6.12682 12.9828C6.16851 12.8791 6.18917 12.7681 6.18758 12.6563V7.03127C6.18758 6.54924 6.5493 6.18752 7.03133 6.18752H12.6563C12.7681 6.1891 12.8791 6.16845 12.9829 6.12676C13.0867 6.08506 13.1811 6.02316 13.2607 5.94466C13.3403 5.86615 13.4036 5.7726 13.4467 5.66945C13.4899 5.56629 13.5121 5.45559 13.5121 5.34377C13.5121 5.23196 13.4899 5.12125 13.4467 5.0181C13.4036 4.91494 13.3403 4.82139 13.2607 4.74289C13.1811 4.66438 13.0867 4.60248 12.9829 4.56079C12.8791 4.5191 12.7681 4.49844 12.6563 4.50002H7.03133Z" fill="black"/>
<path d="M10.3943 19.6754C10.2834 19.677 10.174 19.7004 10.0723 19.7443C9.97052 19.7882 9.8784 19.8516 9.80117 19.9311C9.72394 20.0106 9.66312 20.1045 9.62219 20.2075C9.58125 20.3104 9.561 20.4205 9.56259 20.5313V24.4688C9.56101 24.5806 9.58166 24.6916 9.62335 24.7953C9.66505 24.8991 9.72695 24.9935 9.80545 25.0732C9.88396 25.1528 9.97751 25.216 10.0807 25.2592C10.1838 25.3023 10.2945 25.3245 10.4063 25.3245C10.5182 25.3245 10.6289 25.3023 10.732 25.2592C10.8352 25.216 10.9287 25.1528 11.0072 25.0732C11.0857 24.9935 11.1476 24.8991 11.1893 24.7953C11.231 24.6916 11.2517 24.5806 11.2501 24.4688V20.5313C11.2517 20.4184 11.2307 20.3064 11.1882 20.2019C11.1458 20.0973 11.0828 20.0023 11.003 19.9225C10.9232 19.8427 10.8282 19.7797 10.7237 19.7373C10.6191 19.6949 10.5071 19.6738 10.3943 19.6754Z" fill="black"/>
<path d="M10.3943 10.6754C10.2834 10.677 10.174 10.7004 10.0723 10.7443C9.97052 10.7882 9.8784 10.8516 9.80117 10.9311C9.72394 11.0106 9.66312 11.1045 9.62219 11.2075C9.58125 11.3104 9.561 11.4205 9.56259 11.5313V14.9063C9.56101 15.0181 9.58166 15.1291 9.62335 15.2328C9.66505 15.3366 9.72695 15.431 9.80545 15.5107C9.88396 15.5903 9.97751 15.6535 10.0807 15.6967C10.1838 15.7398 10.2945 15.762 10.4063 15.762C10.5182 15.762 10.6289 15.7398 10.732 15.6967C10.8352 15.6535 10.9287 15.5903 11.0072 15.5107C11.0857 15.431 11.1476 15.3366 11.1893 15.2328C11.231 15.1291 11.2517 15.0181 11.2501 14.9063V11.5313C11.2517 11.4184 11.2307 11.3064 11.1882 11.2019C11.1458 11.0973 11.0828 11.0023 11.003 10.9225C10.9232 10.8427 10.8282 10.7797 10.7237 10.7373C10.6191 10.6949 10.5071 10.6738 10.3943 10.6754Z" fill="black"/>
<path d="M25.5818 19.6754C25.4709 19.677 25.3615 19.7004 25.2598 19.7443C25.158 19.7882 25.0659 19.8516 24.9887 19.9311C24.9114 20.0106 24.8506 20.1045 24.8097 20.2075C24.7688 20.3104 24.7485 20.4205 24.7501 20.5313V24.4688C24.7485 24.5806 24.7692 24.6916 24.8109 24.7953C24.8525 24.8991 24.9144 24.9935 24.993 25.0732C25.0715 25.1528 25.165 25.216 25.2682 25.2592C25.3713 25.3023 25.482 25.3245 25.5938 25.3245C25.7057 25.3245 25.8164 25.3023 25.9195 25.2592C26.0227 25.216 26.1162 25.1528 26.1947 25.0732C26.2732 24.9935 26.3351 24.8991 26.3768 24.7953C26.4185 24.6916 26.4392 24.5806 26.4376 24.4688V20.5313C26.4392 20.4184 26.4182 20.3064 26.3757 20.2019C26.3333 20.0973 26.2703 20.0023 26.1905 19.9225C26.1107 19.8427 26.0157 19.7797 25.9112 19.7373C25.8066 19.6949 25.6946 19.6738 25.5818 19.6754Z" fill="black"/>
<path d="M25.5818 10.6754C25.4709 10.677 25.3615 10.7004 25.2598 10.7443C25.158 10.7882 25.0659 10.8516 24.9887 10.9311C24.9114 11.0106 24.8506 11.1045 24.8097 11.2075C24.7688 11.3104 24.7485 11.4205 24.7501 11.5313V14.9063C24.7485 15.0181 24.7692 15.1291 24.8109 15.2328C24.8525 15.3366 24.9144 15.431 24.993 15.5107C25.0715 15.5903 25.165 15.6535 25.2682 15.6967C25.3713 15.7398 25.482 15.762 25.5938 15.762C25.7057 15.762 25.8164 15.7398 25.9195 15.6967C26.0227 15.6535 26.1162 15.5903 26.1947 15.5107C26.2732 15.431 26.3351 15.3366 26.3768 15.2328C26.4185 15.1291 26.4392 15.0181 26.4376 14.9063V11.5313C26.4392 11.4184 26.4182 11.3064 26.3757 11.2019C26.3333 11.0973 26.2703 11.0023 26.1905 10.9225C26.1107 10.8427 26.0157 10.7797 25.9112 10.7373C25.8066 10.6949 25.6946 10.6738 25.5818 10.6754Z" fill="black"/>
<path d="M13.7693 19.6754C13.6584 19.677 13.549 19.7004 13.4473 19.7443C13.3455 19.7882 13.2534 19.8516 13.1762 19.9311C13.0989 20.0106 13.0381 20.1045 12.9972 20.2075C12.9563 20.3104 12.936 20.4205 12.9376 20.5313V24.4688C12.936 24.5806 12.9567 24.6916 12.9984 24.7953C13.04 24.8991 13.1019 24.9935 13.1805 25.0732C13.259 25.1528 13.3525 25.216 13.4557 25.2592C13.5588 25.3023 13.6695 25.3245 13.7813 25.3245C13.8932 25.3245 14.0039 25.3023 14.107 25.2592C14.2102 25.216 14.3037 25.1528 14.3822 25.0732C14.4607 24.9935 14.5226 24.8991 14.5643 24.7953C14.606 24.6916 14.6267 24.5806 14.6251 24.4688V20.5313C14.6267 20.4184 14.6057 20.3064 14.5632 20.2019C14.5208 20.0973 14.4578 20.0023 14.378 19.9225C14.2982 19.8427 14.2032 19.7797 14.0987 19.7373C13.9941 19.6949 13.8821 19.6738 13.7693 19.6754Z" fill="black"/>
<path d="M13.7693 10.6754C13.6584 10.677 13.549 10.7004 13.4473 10.7443C13.3455 10.7882 13.2534 10.8516 13.1762 10.9311C13.0989 11.0106 13.0381 11.1045 12.9972 11.2075C12.9563 11.3104 12.936 11.4205 12.9376 11.5313V14.9063C12.936 15.0181 12.9567 15.1291 12.9984 15.2328C13.04 15.3366 13.1019 15.431 13.1805 15.5107C13.259 15.5903 13.3525 15.6535 13.4557 15.6967C13.5588 15.7398 13.6695 15.762 13.7813 15.762C13.8932 15.762 14.0039 15.7398 14.107 15.6967C14.2102 15.6535 14.3037 15.5903 14.3822 15.5107C14.4607 15.431 14.5226 15.3366 14.5643 15.2328C14.606 15.1291 14.6267 15.0181 14.6251 14.9063V11.5313C14.6267 11.4184 14.6057 11.3064 14.5632 11.2019C14.5208 11.0973 14.4578 11.0023 14.378 10.9225C14.2982 10.8427 14.2032 10.7797 14.0987 10.7373C13.9941 10.6949 13.8821 10.6738 13.7693 10.6754Z" fill="black"/>
<path d="M17.7068 19.6754C17.5959 19.677 17.4865 19.7004 17.3848 19.7443C17.283 19.7882 17.1909 19.8516 17.1137 19.9311C17.0364 20.0106 16.9756 20.1045 16.9347 20.2075C16.8938 20.3104 16.8735 20.4205 16.8751 20.5313V24.4688C16.8735 24.5806 16.8942 24.6916 16.9359 24.7953C16.9775 24.8991 17.0394 24.9935 17.118 25.0732C17.1965 25.1528 17.29 25.216 17.3932 25.2592C17.4963 25.3023 17.607 25.3245 17.7188 25.3245C17.8307 25.3245 17.9414 25.3023 18.0445 25.2592C18.1477 25.216 18.2412 25.1528 18.3197 25.0732C18.3982 24.9935 18.4601 24.8991 18.5018 24.7953C18.5435 24.6916 18.5642 24.5806 18.5626 24.4688V20.5313C18.5642 20.4184 18.5432 20.3064 18.5007 20.2019C18.4583 20.0973 18.3953 20.0023 18.3155 19.9225C18.2357 19.8427 18.1407 19.7797 18.0362 19.7373C17.9316 19.6949 17.8196 19.6738 17.7068 19.6754Z" fill="black"/>
<path d="M17.7068 10.6754C17.5959 10.677 17.4865 10.7004 17.3848 10.7443C17.283 10.7882 17.1909 10.8516 17.1137 10.9311C17.0364 11.0106 16.9756 11.1045 16.9347 11.2075C16.8938 11.3104 16.8735 11.4205 16.8751 11.5313V14.9063C16.8735 15.0181 16.8942 15.1291 16.9359 15.2328C16.9775 15.3366 17.0394 15.431 17.118 15.5107C17.1965 15.5903 17.29 15.6535 17.3932 15.6967C17.4963 15.7398 17.607 15.762 17.7188 15.762C17.8307 15.762 17.9414 15.7398 18.0445 15.6967C18.1477 15.6535 18.2412 15.5903 18.3197 15.5107C18.3982 15.431 18.4601 15.3366 18.5018 15.2328C18.5435 15.1291 18.5642 15.0181 18.5626 14.9063V11.5313C18.5642 11.4184 18.5432 11.3064 18.5007 11.2019C18.4583 11.0973 18.3953 11.0023 18.3155 10.9225C18.2357 10.8427 18.1407 10.7797 18.0362 10.7373C17.9316 10.6949 17.8196 10.6738 17.7068 10.6754Z" fill="black"/>
<path d="M21.0818 19.6754C20.9709 19.677 20.8615 19.7004 20.7598 19.7443C20.658 19.7882 20.5659 19.8516 20.4887 19.9311C20.4114 20.0106 20.3506 20.1045 20.3097 20.2075C20.2688 20.3104 20.2485 20.4205 20.2501 20.5313V24.4688C20.2485 24.5806 20.2692 24.6916 20.3109 24.7953C20.3525 24.8991 20.4144 24.9935 20.493 25.0732C20.5715 25.1528 20.665 25.216 20.7682 25.2592C20.8713 25.3023 20.982 25.3245 21.0938 25.3245C21.2057 25.3245 21.3164 25.3023 21.4195 25.2592C21.5227 25.216 21.6162 25.1528 21.6947 25.0732C21.7732 24.9935 21.8351 24.8991 21.8768 24.7953C21.9185 24.6916 21.9392 24.5806 21.9376 24.4688V20.5313C21.9392 20.4184 21.9182 20.3064 21.8757 20.2019C21.8333 20.0973 21.7703 20.0023 21.6905 19.9225C21.6107 19.8427 21.5157 19.7797 21.4112 19.7373C21.3066 19.6949 21.1946 19.6738 21.0818 19.6754Z" fill="black"/>
<path d="M21.0818 10.6754C20.9709 10.677 20.8615 10.7004 20.7598 10.7443C20.658 10.7882 20.5659 10.8516 20.4887 10.9311C20.4114 11.0106 20.3506 11.1045 20.3097 11.2075C20.2688 11.3104 20.2485 11.4205 20.2501 11.5313V14.9063C20.2485 15.0181 20.2692 15.1291 20.3109 15.2328C20.3525 15.3366 20.4144 15.431 20.493 15.5107C20.5715 15.5903 20.665 15.6535 20.7682 15.6967C20.8713 15.7398 20.982 15.762 21.0938 15.762C21.2057 15.762 21.3164 15.7398 21.4195 15.6967C21.5227 15.6535 21.6162 15.5903 21.6947 15.5107C21.7732 15.431 21.8351 15.3366 21.8768 15.2328C21.9185 15.1291 21.9392 15.0181 21.9376 14.9063V11.5313C21.9392 11.4184 21.9182 11.3064 21.8757 11.2019C21.8333 11.0973 21.7703 11.0023 21.6905 10.9225C21.6107 10.8427 21.5157 10.7797 21.4112 10.7373C21.3066 10.6949 21.1946 10.6738 21.0818 10.6754Z" fill="black"/>
<path d="M5.35577 16.8749C4.21474 16.8587 4.21474 18.5785 5.35577 18.5624C13.7932 18.5623 22.2066 18.5625 30.6441 18.5624C31.7851 18.5785 31.7851 16.8587 30.6441 16.8749C22.2066 16.875 13.7933 16.8748 5.35577 16.8749Z" fill="black"/>
</svg>
