<svg width="117" height="117" viewBox="0 0 117 117" fill="none" xmlns="http://www.w3.org/2000/svg">
<rect width="117" height="117" rx="10" fill="#136DA5"/>
<path d="M17.3246 73.0857C16.598 73.0971 15.9055 73.3964 15.3994 73.9179C14.8933 74.4394 14.6149 75.1405 14.6253 75.8672V94.1484C14.6253 98.6585 18.3418 102.375 22.8518 102.375H41.1331C41.4965 102.38 41.8572 102.313 42.1944 102.178C42.5316 102.042 42.8385 101.841 43.0973 101.586C43.3561 101.331 43.5616 101.027 43.7019 100.691C43.8421 100.356 43.9143 99.9962 43.9143 99.6328C43.9143 99.2694 43.8421 98.9096 43.7019 98.5744C43.5616 98.2391 43.3561 97.9351 43.0973 97.6799C42.8385 97.4248 42.5316 97.2236 42.1944 97.0881C41.8572 96.9526 41.4965 96.8855 41.1331 96.8906H22.8518C21.2852 96.8906 20.1097 95.715 20.1097 94.1484V75.8672C20.1149 75.5002 20.0465 75.1358 19.9083 74.7957C19.7702 74.4557 19.5652 74.1468 19.3054 73.8874C19.0457 73.628 18.7366 73.4234 18.3963 73.2857C18.0561 73.148 17.6916 73.08 17.3246 73.0857Z" fill="white"/>
<path d="M99.59 73.0857C98.8633 73.0971 98.1709 73.3964 97.6648 73.9179C97.1586 74.4394 96.8802 75.1405 96.8906 75.8672V94.1484C96.8906 95.715 95.715 96.8906 94.1484 96.8906H75.8672C75.5038 96.8855 75.143 96.9526 74.8058 97.0881C74.4686 97.2236 74.1617 97.4248 73.9029 97.6799C73.6442 97.9351 73.4387 98.2391 73.2984 98.5744C73.1582 98.9096 73.0859 99.2694 73.0859 99.6328C73.0859 99.9962 73.1582 100.356 73.2984 100.691C73.4387 101.027 73.6442 101.331 73.9029 101.586C74.1617 101.841 74.4686 102.042 74.8058 102.178C75.143 102.313 75.5038 102.38 75.8672 102.375H94.1484C98.6585 102.375 102.375 98.6585 102.375 94.1484V75.8672C102.38 75.5002 102.312 75.1358 102.174 74.7957C102.036 74.4557 101.831 74.1468 101.571 73.8874C101.311 73.628 101.002 73.4234 100.662 73.2857C100.321 73.148 99.957 73.08 99.59 73.0857Z" fill="white"/>
<path d="M75.8672 14.625C75.5038 14.6198 75.143 14.687 74.8058 14.8225C74.4686 14.958 74.1617 15.1591 73.9029 15.4143C73.6442 15.6694 73.4387 15.9735 73.2984 16.3087C73.1582 16.644 73.0859 17.0037 73.0859 17.3672C73.0859 17.7306 73.1582 18.0903 73.2984 18.4256C73.4387 18.7609 73.6442 19.0649 73.9029 19.32C74.1617 19.5752 74.4686 19.7763 74.8058 19.9118C75.143 20.0474 75.5038 20.1145 75.8672 20.1093H94.1484C95.715 20.1093 96.8906 21.2849 96.8906 22.8515V41.1328C96.8855 41.4962 96.9526 41.8569 97.0881 42.1941C97.2236 42.5313 97.4248 42.8382 97.6799 43.097C97.9351 43.3558 98.2391 43.5613 98.5744 43.7015C98.9096 43.8418 99.2694 43.914 99.6328 43.914C99.9962 43.914 100.356 43.8418 100.691 43.7015C101.027 43.5613 101.331 43.3558 101.586 43.097C101.841 42.8382 102.042 42.5313 102.177 42.1941C102.313 41.8569 102.38 41.4962 102.375 41.1328V22.8515C102.375 18.3414 98.6585 14.625 94.1484 14.625H75.8672Z" fill="white"/>
<path d="M22.8518 14.625C18.3418 14.625 14.6253 18.3414 14.6253 22.8515V41.1328C14.6201 41.4962 14.6873 41.8569 14.8228 42.1941C14.9583 42.5313 15.1594 42.8382 15.4146 43.097C15.6697 43.3558 15.9738 43.5613 16.309 43.7015C16.6443 43.8418 17.0041 43.914 17.3675 43.914C17.7309 43.914 18.0907 43.8418 18.4259 43.7015C18.7612 43.5613 19.0652 43.3558 19.3203 43.097C19.5755 42.8382 19.7767 42.5313 19.9122 42.1941C20.0477 41.8569 20.1148 41.4962 20.1096 41.1328V22.8515C20.1096 21.2849 21.2852 20.1093 22.8518 20.1093H41.1331C41.4965 20.1145 41.8572 20.0474 42.1944 19.9118C42.5316 19.7763 42.8385 19.5752 43.0973 19.32C43.3561 19.0649 43.5616 18.7609 43.7018 18.4256C43.8421 18.0903 43.9143 17.7306 43.9143 17.3672C43.9143 17.0037 43.8421 16.644 43.7018 16.3087C43.5616 15.9735 43.3561 15.6694 43.0973 15.4143C42.8385 15.1591 42.5316 14.958 42.1944 14.8225C41.8572 14.687 41.4965 14.6198 41.1331 14.625H22.8518Z" fill="white"/>
<path d="M33.7813 63.9451C33.4212 63.9503 33.0656 64.0263 32.7349 64.1689C32.4042 64.3114 32.1048 64.5178 31.8538 64.776C31.6028 65.0343 31.4052 65.3395 31.2721 65.6742C31.1391 66.0089 31.0732 66.3665 31.0784 66.7266V79.5234C31.0733 79.8868 31.1404 80.2476 31.2759 80.5848C31.4114 80.922 31.6126 81.2289 31.8677 81.4877C32.1229 81.7465 32.4269 81.9519 32.7622 82.0922C33.0974 82.2325 33.4572 82.3047 33.8206 82.3047C34.184 82.3047 34.5438 82.2325 34.879 82.0922C35.2143 81.9519 35.5183 81.7465 35.7735 81.4877C36.0286 81.2289 36.2298 80.922 36.3653 80.5848C36.5008 80.2476 36.5679 79.8868 36.5628 79.5234V66.7266C36.568 66.3598 36.4997 65.9958 36.3618 65.656C36.2238 65.3161 36.0192 65.0074 35.7598 64.7481C35.5005 64.4887 35.1918 64.2841 34.8519 64.1461C34.5121 64.0082 34.148 63.9399 33.7813 63.9451Z" fill="white"/>
<path d="M33.7813 34.6951C33.4212 34.7003 33.0656 34.7763 32.7349 34.9189C32.4042 35.0614 32.1048 35.2678 31.8538 35.526C31.6028 35.7843 31.4052 36.0895 31.2721 36.4242C31.1391 36.7589 31.0732 37.1165 31.0784 37.4766V48.4453C31.0733 48.8087 31.1404 49.1695 31.2759 49.5067C31.4114 49.8439 31.6126 50.1508 31.8677 50.4096C32.1229 50.6683 32.4269 50.8738 32.7622 51.0141C33.0974 51.1543 33.4572 51.2266 33.8206 51.2266C34.184 51.2266 34.5438 51.1543 34.879 51.0141C35.2143 50.8738 35.5183 50.6683 35.7735 50.4096C36.0286 50.1508 36.2298 49.8439 36.3653 49.5067C36.5008 49.1695 36.5679 48.8087 36.5628 48.4453V37.4766C36.568 37.1098 36.4997 36.7458 36.3618 36.406C36.2238 36.0661 36.0192 35.7574 35.7598 35.4981C35.5005 35.2387 35.1918 35.0341 34.8519 34.8961C34.5121 34.7582 34.148 34.6899 33.7813 34.6951Z" fill="white"/>
<path d="M83.1407 63.9451C82.7806 63.9503 82.425 64.0263 82.0943 64.1689C81.7636 64.3114 81.4642 64.5178 81.2132 64.776C80.9622 65.0343 80.7645 65.3395 80.6315 65.6742C80.4984 66.0089 80.4326 66.3665 80.4378 66.7266V79.5234C80.4326 79.8868 80.4998 80.2476 80.6353 80.5848C80.7708 80.922 80.9719 81.2289 81.2271 81.4877C81.4822 81.7465 81.7863 81.9519 82.1215 82.0922C82.4568 82.2325 82.8166 82.3047 83.18 82.3047C83.5434 82.3047 83.9032 82.2325 84.2384 82.0922C84.5737 81.9519 84.8777 81.7465 85.1328 81.4877C85.388 81.2289 85.5892 80.922 85.7247 80.5848C85.8602 80.2476 85.9273 79.8868 85.9222 79.5234V66.7266C85.9274 66.3598 85.8591 65.9958 85.7211 65.656C85.5832 65.3161 85.3785 65.0074 85.1192 64.7481C84.8599 64.4887 84.5511 64.2841 84.2113 64.1461C83.8715 64.0082 83.5074 63.9399 83.1407 63.9451Z" fill="white"/>
<path d="M83.1407 34.6951C82.7806 34.7003 82.425 34.7763 82.0943 34.9189C81.7636 35.0614 81.4642 35.2678 81.2132 35.526C80.9622 35.7843 80.7645 36.0895 80.6315 36.4242C80.4984 36.7589 80.4326 37.1165 80.4378 37.4766V48.4453C80.4326 48.8087 80.4998 49.1695 80.6353 49.5067C80.7708 49.8439 80.9719 50.1508 81.2271 50.4096C81.4822 50.6683 81.7863 50.8738 82.1215 51.0141C82.4568 51.1543 82.8166 51.2266 83.18 51.2266C83.5434 51.2266 83.9032 51.1543 84.2384 51.0141C84.5737 50.8738 84.8777 50.6683 85.1328 50.4096C85.388 50.1508 85.5892 49.8439 85.7247 49.5067C85.8602 49.1695 85.9273 48.8087 85.9222 48.4453V37.4766C85.9274 37.1098 85.8591 36.7458 85.7211 36.406C85.5832 36.0661 85.3785 35.7574 85.1192 35.4981C84.8599 35.2387 84.5511 35.0341 84.2113 34.8961C83.8715 34.7582 83.5074 34.6899 83.1407 34.6951Z" fill="white"/>
<path d="M44.7501 63.9451C44.39 63.9503 44.0344 64.0263 43.7037 64.1689C43.3729 64.3114 43.0735 64.5178 42.8225 64.776C42.5716 65.0343 42.3739 65.3395 42.2409 65.6742C42.1078 66.0089 42.042 66.3665 42.0472 66.7266V79.5234C42.042 79.8868 42.1092 80.2476 42.2447 80.5848C42.3802 80.922 42.5813 81.2289 42.8365 81.4877C43.0916 81.7465 43.3956 81.9519 43.7309 82.0922C44.0662 82.2325 44.4259 82.3047 44.7893 82.3047C45.1528 82.3047 45.5125 82.2325 45.8478 82.0922C46.183 81.9519 46.4871 81.7465 46.7422 81.4877C46.9974 81.2289 47.1985 80.922 47.334 80.5848C47.4695 80.2476 47.5367 79.8868 47.5315 79.5234V66.7266C47.5368 66.3598 47.4684 65.9958 47.3305 65.656C47.1926 65.3161 46.9879 65.0074 46.7286 64.7481C46.4692 64.4887 46.1605 64.2841 45.8207 64.1461C45.4808 64.0082 45.1168 63.9399 44.7501 63.9451Z" fill="white"/>
<path d="M44.7501 34.6951C44.39 34.7003 44.0344 34.7763 43.7037 34.9189C43.3729 35.0614 43.0735 35.2678 42.8225 35.526C42.5716 35.7843 42.3739 36.0895 42.2409 36.4242C42.1078 36.7589 42.042 37.1165 42.0472 37.4766V48.4453C42.042 48.8087 42.1092 49.1695 42.2447 49.5067C42.3802 49.8439 42.5813 50.1508 42.8365 50.4096C43.0916 50.6683 43.3956 50.8738 43.7309 51.0141C44.0662 51.1543 44.4259 51.2266 44.7893 51.2266C45.1528 51.2266 45.5125 51.1543 45.8478 51.0141C46.183 50.8738 46.4871 50.6683 46.7422 50.4096C46.9974 50.1508 47.1985 49.8439 47.334 49.5067C47.4695 49.1695 47.5367 48.8087 47.5315 48.4453V37.4766C47.5368 37.1098 47.4684 36.7458 47.3305 36.406C47.1926 36.0661 46.9879 35.7574 46.7286 35.4981C46.4692 35.2387 46.1605 35.0341 45.8207 34.8961C45.4808 34.7582 45.1168 34.6899 44.7501 34.6951Z" fill="white"/>
<path d="M57.5469 63.9451C57.1868 63.9503 56.8313 64.0263 56.5005 64.1689C56.1698 64.3114 55.8704 64.5178 55.6194 64.776C55.3684 65.0343 55.1708 65.3395 55.0377 65.6742C54.9047 66.0089 54.8389 66.3665 54.844 66.7266V79.5234C54.8389 79.8868 54.906 80.2476 55.0415 80.5848C55.177 80.922 55.3782 81.2289 55.6333 81.4877C55.8885 81.7465 56.1925 81.9519 56.5278 82.0922C56.863 82.2325 57.2228 82.3047 57.5862 82.3047C57.9496 82.3047 58.3094 82.2325 58.6447 82.0922C58.9799 81.9519 59.284 81.7465 59.5391 81.4877C59.7942 81.2289 59.9954 80.922 60.1309 80.5848C60.2664 80.2476 60.3335 79.8868 60.3284 79.5234V66.7266C60.3337 66.3598 60.2653 65.9958 60.1274 65.656C59.9895 65.3161 59.7848 65.0074 59.5254 64.7481C59.2661 64.4887 58.9574 64.2841 58.6175 64.1461C58.2777 64.0082 57.9137 63.9399 57.5469 63.9451Z" fill="white"/>
<path d="M57.5469 34.6951C57.1868 34.7003 56.8313 34.7763 56.5005 34.9189C56.1698 35.0614 55.8704 35.2678 55.6194 35.526C55.3684 35.7843 55.1708 36.0895 55.0377 36.4242C54.9047 36.7589 54.8389 37.1165 54.844 37.4766V48.4453C54.8389 48.8087 54.906 49.1695 55.0415 49.5067C55.177 49.8439 55.3782 50.1508 55.6333 50.4096C55.8885 50.6683 56.1925 50.8738 56.5278 51.0141C56.863 51.1543 57.2228 51.2266 57.5862 51.2266C57.9496 51.2266 58.3094 51.1543 58.6447 51.0141C58.9799 50.8738 59.284 50.6683 59.5391 50.4096C59.7942 50.1508 59.9954 49.8439 60.1309 49.5067C60.2664 49.1695 60.3335 48.8087 60.3284 48.4453V37.4766C60.3337 37.1098 60.2653 36.7458 60.1274 36.406C59.9895 36.0661 59.7848 35.7574 59.5254 35.4981C59.2661 35.2387 58.9574 35.0341 58.6175 34.8961C58.2777 34.7582 57.9137 34.6899 57.5469 34.6951Z" fill="white"/>
<path d="M68.5157 63.9451C68.1556 63.9503 67.8 64.0263 67.4693 64.1689C67.1386 64.3114 66.8392 64.5178 66.5882 64.776C66.3372 65.0343 66.1395 65.3395 66.0065 65.6742C65.8734 66.0089 65.8076 66.3665 65.8128 66.7266V79.5234C65.8076 79.8868 65.8748 80.2476 66.0103 80.5848C66.1458 80.922 66.3469 81.2289 66.6021 81.4877C66.8572 81.7465 67.1613 81.9519 67.4965 82.0922C67.8318 82.2325 68.1916 82.3047 68.555 82.3047C68.9184 82.3047 69.2782 82.2325 69.6134 82.0922C69.9487 81.9519 70.2527 81.7465 70.5078 81.4877C70.763 81.2289 70.9642 80.922 71.0997 80.5848C71.2352 80.2476 71.3023 79.8868 71.2972 79.5234V66.7266C71.3024 66.3598 71.2341 65.9958 71.0961 65.656C70.9582 65.3161 70.7535 65.0074 70.4942 64.7481C70.2349 64.4887 69.9261 64.2841 69.5863 64.1461C69.2465 64.0082 68.8824 63.9399 68.5157 63.9451Z" fill="white"/>
<path d="M68.5157 34.6951C68.1556 34.7003 67.8 34.7763 67.4693 34.9189C67.1386 35.0614 66.8392 35.2678 66.5882 35.526C66.3372 35.7843 66.1395 36.0895 66.0065 36.4242C65.8734 36.7589 65.8076 37.1165 65.8128 37.4766V48.4453C65.8076 48.8087 65.8748 49.1695 66.0103 49.5067C66.1458 49.8439 66.3469 50.1508 66.6021 50.4096C66.8572 50.6683 67.1613 50.8738 67.4965 51.0141C67.8318 51.1543 68.1916 51.2266 68.555 51.2266C68.9184 51.2266 69.2782 51.1543 69.6134 51.0141C69.9487 50.8738 70.2527 50.6683 70.5078 50.4096C70.763 50.1508 70.9642 49.8439 71.0997 49.5067C71.2352 49.1695 71.3023 48.8087 71.2972 48.4453V37.4766C71.3024 37.1098 71.2341 36.7458 71.0961 36.406C70.9582 36.0661 70.7535 35.7574 70.4942 35.4981C70.2349 35.2387 69.9261 35.0341 69.5863 34.8961C69.2465 34.7582 68.8824 34.6899 68.5157 34.6951Z" fill="white"/>
<path d="M17.4062 54.8434C13.6979 54.7909 13.6979 60.3802 17.4062 60.3278C44.8281 60.3276 72.1713 60.3283 99.5933 60.3278C103.302 60.3802 103.302 54.7909 99.5933 54.8434C72.1715 54.8439 44.8282 54.8432 17.4062 54.8434Z" fill="white"/>
</svg>
