<svg width="20" height="20" viewBox="0 0 20 20" fill="none" xmlns="http://www.w3.org/2000/svg">
<g clip-path="url(#clip0_4022_98)">
<path d="M3.68959 4.88889C3.59052 3.34568 3.71436 1.98766 4.85368 0.962967C5.53479 0.358029 6.31498 0.0246957 7.20662 4.30248e-06C8.46978 -0.0370327 9.48526 0.46914 10.2654 1.45679C11.0456 2.44445 11.0332 3.62963 11.0209 4.8642C11.4419 4.8642 11.801 4.8642 12.1726 4.8642C13.6586 4.91358 14.6246 5.90124 14.6617 7.38272C14.6617 7.71605 14.6617 8.03704 14.6617 8.37037C14.6617 8.80247 14.5131 9.12346 14.0425 9.12346C13.5719 9.12346 13.4357 8.76544 13.4357 8.35803C13.4357 8.04939 13.4357 7.74075 13.4357 7.4321C13.411 6.55556 12.9651 6.09877 12.0859 6.09877C8.92798 6.09877 5.77009 6.09877 2.61219 6.09877C1.69578 6.09877 1.23758 6.56791 1.23758 7.46914C1.23758 9.38272 1.23758 11.2963 1.23758 13.2099C1.23758 14.1728 1.67102 14.6173 2.62458 14.6173C4.02396 14.6173 5.43572 14.6173 6.8351 14.6173C6.99609 14.6173 7.16947 14.6173 7.33046 14.6173C7.70198 14.6667 8.01157 14.8765 7.9125 15.2469C7.85058 15.4691 7.5286 15.7901 7.31808 15.7901C5.58433 15.8272 3.85058 15.8519 2.11684 15.7901C0.989902 15.7407 0.0363414 14.7161 0.0239575 13.5556C-0.0131942 11.4198 -0.0131942 9.27161 0.0239575 7.13581C0.0487253 5.95062 0.977518 5.01235 2.17876 4.88889C2.64934 4.83951 3.11993 4.88889 3.68959 4.88889ZM4.92798 4.82716H9.74532C9.86916 3.5926 9.85678 2.41976 8.71746 1.64198C7.87535 1.07408 6.97133 1.03704 6.09207 1.55556C4.8413 2.2963 4.80414 3.50618 4.92798 4.82716Z" fill="white"/>
<path d="M18.6007 13.5802C18.7122 13.4197 18.7617 13.2716 18.8608 13.2345C19.1333 13.1358 19.4924 12.9506 19.7029 13.037C20.0868 13.1975 20.062 13.5926 19.8391 13.9259C19.5048 14.4444 19.1456 14.9506 18.8113 15.4691C18.5264 15.9012 18.1425 15.9012 17.7339 15.6666C17.2757 15.395 16.8299 15.0987 16.3716 14.8148C16.0001 14.5926 15.7277 14.3086 16.0125 13.8642C16.2726 13.4691 16.6317 13.5308 16.9785 13.7531C17.0651 13.8024 17.1518 13.8518 17.2509 13.9136C17.028 12.8518 15.7896 11.8765 14.4893 11.7284C12.6936 11.5308 11.0713 12.6543 10.6255 14.395C10.1921 16.0987 11.1085 17.8642 12.7432 18.5185C14.415 19.1852 16.2973 18.5185 17.1642 16.9506C17.3871 16.5432 17.5357 16 18.1921 16.2839C18.6131 16.4691 18.6131 16.8889 18.2292 17.5679C17.1766 19.4197 15.0094 20.3457 12.9289 19.8395C10.8484 19.3333 9.34998 17.4321 9.31282 15.2963C9.28806 13.1728 10.6874 11.2839 12.7432 10.679C14.7989 10.0741 16.9908 10.9136 18.1178 12.7407C18.2664 12.9876 18.3902 13.2469 18.576 13.5679L18.6007 13.5802Z" fill="white"/>
<path d="M4.66176 9.20438L4.13235 9.91971L5 9.80292V10.1825L4.14706 10.0949L4.70588 10.781L4.35294 10.9854L4 10.1971L3.63235 11L3.30882 10.7956L3.83824 10.0949L3 10.1971V9.81752L3.83824 9.91971L3.29412 9.21898L3.64706 9.0146L4.01471 9.80292L4.35294 9L4.69118 9.18978L4.66176 9.20438Z" fill="white"/>
<path d="M7.66177 9.20438L7.13235 9.91971L8 9.80292V10.1825L7.14706 10.0949L7.70588 10.781L7.35294 10.9854L7 10.1971L6.63235 11L6.30882 10.7956L6.83824 10.0949L6 10.1971V9.81752L6.83824 9.91971L6.29412 9.21898L6.64706 9.0146L7.01471 9.80292L7.35294 9L7.69118 9.18978L7.66177 9.20438Z" fill="white"/>
<path d="M10.6618 9.20438L10.1324 9.91971L11 9.80292V10.1825L10.1471 10.0949L10.7059 10.781L10.3529 10.9854L10 10.1971L9.63235 11L9.30882 10.7956L9.83823 10.0949L9 10.1971V9.81752L9.83823 9.91971L9.29412 9.21898L9.64706 9.0146L10.0147 9.80292L10.3529 9L10.6912 9.18978L10.6618 9.20438Z" fill="white"/>
</g>
<defs>
<clipPath id="clip0_4022_98">
<rect width="20" height="20" fill="white"/>
</clipPath>
</defs>
</svg>
