<svg width="35" height="50" viewBox="0 0 35 50" fill="none" xmlns="http://www.w3.org/2000/svg">
<circle cx="18" cy="22" r="16.5" fill="white" stroke="black"/>
<path d="M20.1282 21.6067C20.2427 21.7082 20.3442 21.795 20.4407 21.885C20.5323 21.9701 20.619 22.0618 20.709 22.1502C20.7761 22.214 20.8513 22.2713 20.9135 22.3401C21.0918 22.5398 21.257 22.751 21.4435 22.9408C21.576 23.0767 21.7445 23.1798 21.8803 23.3141C22.0178 23.4499 22.1241 23.6153 22.2615 23.7511C22.3957 23.8837 22.5527 23.995 22.695 24.1194C22.7605 24.1767 22.8325 24.234 22.8783 24.306C23.0075 24.509 23.1924 24.6498 23.374 24.8004C23.5441 24.9444 23.6946 25.1114 23.8468 25.2767C23.9776 25.4191 24.0889 25.5812 24.2263 25.7171C24.3604 25.8497 24.5175 25.9593 24.6615 26.0837C24.7269 26.141 24.7858 26.2065 24.848 26.2687C25.0083 26.4291 25.1735 26.5846 25.3273 26.75C25.5105 26.9497 25.6774 27.1641 25.8655 27.3589C25.9948 27.4931 26.1584 27.5946 26.2909 27.7256C26.4299 27.8614 26.5461 28.0219 26.6835 28.161C26.816 28.2952 26.9649 28.4147 27.1056 28.5408C27.1694 28.598 27.2332 28.6537 27.2921 28.7159C27.4573 28.8861 27.6225 29.058 27.7812 29.2332C27.8041 29.2577 27.7927 29.3101 27.8107 29.3445C27.845 29.4116 27.8974 29.4722 27.9268 29.5409C27.953 29.6031 27.9628 29.6735 27.971 29.7423C28.007 30.0484 27.863 30.2808 27.7027 30.5313C27.562 30.7522 27.3346 30.8128 27.1579 30.9585C27.0598 31.0387 26.5739 30.983 26.4708 30.9045C26.4414 30.8816 26.4038 30.8619 26.3678 30.8537C26.1976 30.8128 26.0913 30.6982 25.998 30.5574C25.9506 30.4871 25.8803 30.4298 25.8165 30.3708C25.6169 30.1924 25.4042 30.0254 25.2144 29.8356C25.0246 29.6457 24.8676 29.4247 24.6795 29.2332C24.5453 29.0957 24.3735 28.9942 24.2377 28.8567C24.0496 28.6652 23.8893 28.4475 23.7012 28.2559C23.567 28.1184 23.4001 28.012 23.2627 27.8778C23.1286 27.7468 23.0206 27.5913 22.8897 27.4587C22.749 27.318 22.592 27.1952 22.4496 27.0577C22.3711 26.9808 22.3122 26.8858 22.2402 26.8007C22.1781 26.727 22.111 26.6583 22.0439 26.5895C21.8885 26.434 21.7364 26.2753 21.5744 26.1263C21.4354 25.997 21.2783 25.8857 21.1441 25.7547C21.0133 25.627 20.8988 25.4813 20.7761 25.3455C20.7041 25.2653 20.6321 25.1867 20.5585 25.1098C20.4636 25.0099 20.372 24.9068 20.2722 24.8151C20.138 24.6923 19.9924 24.581 19.8599 24.4566C19.7749 24.3764 19.7012 24.2831 19.6243 24.1964C19.5622 24.126 19.5066 24.0507 19.4395 23.9885C19.2464 23.8117 19.0419 23.6447 18.8522 23.4647C18.7671 23.3844 18.7213 23.26 18.6297 23.1929C18.579 23.1553 18.4383 23.1569 18.3941 23.1995C18.044 23.5432 17.7103 23.905 17.3651 24.2537C17.1753 24.4452 16.9643 24.6171 16.7761 24.8102C16.6224 24.9674 16.4948 25.1523 16.341 25.3111C16.0923 25.5681 15.8289 25.8136 15.577 26.0674C15.3332 26.3129 15.096 26.565 14.8523 26.8105C14.6085 27.0544 14.3566 27.2901 14.1112 27.534C13.8707 27.773 13.6384 28.0219 13.3979 28.2608C13.1459 28.5146 12.8858 28.7601 12.6339 29.0138C12.4392 29.2103 12.2543 29.4132 12.0613 29.6113C11.883 29.793 11.6965 29.9698 11.5165 30.1515C11.3677 30.3021 11.227 30.4625 11.0732 30.6082C10.9816 30.6949 10.8752 30.767 10.7673 30.8341C10.5775 30.9536 10.3763 31.0125 10.144 30.9978C9.8773 30.9814 9.68098 30.8685 9.47649 30.7031C9.34561 30.5967 9.20165 30.4805 9.18202 30.3446C9.14112 30.0435 9.11821 29.7226 9.18365 29.4312C9.22946 29.2348 9.43068 29.0695 9.57792 28.9025C9.76769 28.6881 9.96891 28.4851 10.1685 28.2821C10.2879 28.161 10.4155 28.0497 10.535 27.9285C10.6904 27.7714 10.8392 27.6077 10.9963 27.4522C11.1713 27.2787 11.3562 27.1134 11.5313 26.9398C11.6834 26.7876 11.8241 26.6256 11.9762 26.4733C12.1513 26.2982 12.3345 26.1328 12.5096 25.9593C12.6617 25.8071 12.804 25.645 12.9578 25.4944C13.1378 25.316 13.3275 25.149 13.5075 24.9706C13.6564 24.8233 13.7922 24.6645 13.9394 24.5156C14.1128 24.3404 14.296 24.1734 14.4694 23.9983C14.6756 23.7904 14.8735 23.5743 15.0796 23.3681C15.204 23.2437 15.343 23.1324 15.4674 23.008C15.6686 22.805 15.86 22.5905 16.0612 22.3876C16.1856 22.2615 16.3197 22.1486 16.4489 22.0274C16.5815 21.9047 16.7271 21.7934 16.8383 21.6542C16.8825 21.6002 16.8727 21.4676 16.8383 21.3956C16.7958 21.3105 16.6992 21.2515 16.6289 21.1811C16.5357 21.0878 16.4473 20.9913 16.3508 20.9012C16.269 20.8259 16.1774 20.7588 16.0907 20.6868C16.0236 20.6295 15.9565 20.5722 15.8944 20.5116C15.7291 20.348 15.559 20.1875 15.4019 20.0173C15.2203 19.8209 15.0567 19.6048 14.8702 19.4133C14.7361 19.2758 14.5676 19.1726 14.4302 19.0368C14.2977 18.9075 14.1913 18.7503 14.0588 18.6177C13.9198 18.4769 13.7594 18.3558 13.6171 18.2183C13.5386 18.1414 13.4797 18.0448 13.4077 17.9613C13.3455 17.8893 13.2817 17.814 13.2097 17.7534C13.1312 17.6863 13.0282 17.6438 12.9578 17.5685C12.7713 17.3688 12.6077 17.1494 12.4163 16.953C12.2854 16.8187 12.1186 16.7222 11.9844 16.5912C11.8437 16.4521 11.7308 16.2835 11.5918 16.1443C11.456 16.0085 11.2924 15.9004 11.1566 15.7629C11.0208 15.6271 10.9145 15.4617 10.7787 15.3259C10.6446 15.1916 10.4842 15.0852 10.3485 14.9527C10.2176 14.825 10.1031 14.6809 9.98037 14.5434C9.90838 14.4632 9.83804 14.3846 9.76442 14.3077C9.66953 14.2079 9.57628 14.108 9.47485 14.0147C9.39633 13.9427 9.29653 13.8919 9.22619 13.8134C9.14439 13.7217 9.03314 13.6153 9.02333 13.5072C8.99388 13.2224 8.99061 12.9311 9.02333 12.6479C9.03642 12.5316 9.16239 12.4236 9.25236 12.3254C9.32107 12.2501 9.40778 12.1895 9.49285 12.1306C9.55829 12.0848 9.63027 12.0209 9.70225 12.016C9.92965 12.0013 10.1603 12.0209 10.3877 12.0078C10.584 11.9964 10.674 12.1535 10.7967 12.2468C10.9603 12.3712 11.0977 12.53 11.2401 12.6806C11.3186 12.7624 11.3775 12.8639 11.4593 12.9425C11.5951 13.0735 11.7439 13.193 11.8846 13.3206C11.955 13.3828 12.0269 13.445 12.0875 13.5154C12.2102 13.6562 12.3165 13.815 12.4507 13.9459C12.5848 14.0785 12.7451 14.1849 12.8891 14.311C12.9594 14.3732 13.0216 14.4452 13.0805 14.5189C13.1492 14.6024 13.1999 14.7038 13.2785 14.7775C13.4142 14.9068 13.5746 15.0099 13.7071 15.1425C13.8429 15.2768 13.9508 15.4388 14.0817 15.578C14.1553 15.6565 14.2519 15.7138 14.3353 15.7826C14.4007 15.8366 14.4678 15.8906 14.5234 15.9544C14.6543 16.1001 14.7721 16.2589 14.9095 16.3981C15.042 16.5323 15.2007 16.642 15.3365 16.7729C15.415 16.8466 15.4706 16.9432 15.541 17.0266C15.5966 17.0921 15.6571 17.1576 15.7226 17.2149C15.8682 17.3442 16.0285 17.4621 16.1659 17.6012C16.2968 17.7338 16.4048 17.8893 16.5275 18.0301C16.5896 18.1005 16.6616 18.1627 16.7336 18.2232C16.8187 18.2936 16.9185 18.3476 16.9921 18.4278C17.1197 18.5637 17.2228 18.7241 17.3553 18.8567C17.4894 18.9909 17.6481 19.099 17.7921 19.2234C17.8591 19.2807 17.9197 19.3445 17.9769 19.41C18.098 19.5524 18.1994 19.7177 18.3418 19.8356C18.4072 19.8896 18.5888 19.9027 18.646 19.852C18.8358 19.6834 18.988 19.4706 19.1679 19.2872C19.3053 19.1465 19.4689 19.0302 19.6096 18.8927C19.7421 18.7634 19.8567 18.6145 19.9859 18.4819C20.1135 18.3509 20.2558 18.2347 20.3834 18.1037C20.5814 17.9024 20.7712 17.6929 20.9691 17.4915C21.0934 17.3655 21.2309 17.2525 21.3552 17.1265C21.558 16.9202 21.7495 16.7025 21.9556 16.5012C22.1519 16.308 22.3678 16.1361 22.5625 15.943C22.749 15.7564 22.911 15.5469 23.0958 15.3602C23.2333 15.2195 23.3969 15.1033 23.5376 14.9657C23.6701 14.8364 23.7846 14.6858 23.9138 14.5532C24.0414 14.4223 24.1854 14.3061 24.313 14.1751C24.511 13.9738 24.6975 13.7593 24.8987 13.5596C25.095 13.3665 25.3093 13.193 25.5023 12.9982C25.6872 12.8116 25.8541 12.6053 26.034 12.4138C26.0929 12.3499 26.1665 12.2976 26.2402 12.2485C26.5412 12.0487 26.8766 11.9342 27.2266 12.0406C27.4295 12.1028 27.6634 12.2239 27.7714 12.3909C27.881 12.5627 28.0561 12.7575 27.9825 13.0178C27.9546 13.1144 27.9579 13.2306 27.9825 13.3305C28.0332 13.5465 27.8974 13.684 27.7845 13.8166C27.5947 14.0392 27.3821 14.2422 27.171 14.4452C26.9796 14.6302 26.7735 14.8021 26.5804 14.987C26.4545 15.1082 26.34 15.2408 26.2205 15.3684C26.088 15.5092 25.9604 15.6516 25.8246 15.7875C25.6332 15.9774 25.4353 16.1591 25.2439 16.3489C25.1064 16.4865 24.9788 16.6321 24.8431 16.7713C24.6451 16.9726 24.4455 17.174 24.2427 17.3704C24.0987 17.5095 23.9433 17.6356 23.8026 17.7763C23.6194 17.9597 23.4459 18.1528 23.266 18.3411C23.1351 18.4769 23.001 18.6079 22.8685 18.7405C22.6754 18.932 22.4824 19.1219 22.291 19.3134C22.1584 19.4476 22.0308 19.5851 21.8967 19.7177C21.7036 19.9093 21.509 20.0975 21.3127 20.2874C21.1082 20.4871 20.8988 20.6802 20.6975 20.8849C20.5552 21.0289 20.444 21.2106 20.2853 21.3301C20.1642 21.4218 20.107 21.4987 20.1331 21.6166L20.1282 21.6067Z" fill="#FF0000"/>
</svg>
