<svg width="38" height="38" viewBox="0 0 38 38" fill="none" xmlns="http://www.w3.org/2000/svg">
<path fill-rule="evenodd" clip-rule="evenodd" d="M9.73018 0H22.4477L33.2097 11.2336V33.0489C33.2097 35.781 31.0046 38 28.2725 38H9.73018C7.01193 38 4.79297 35.781 4.79297 33.0489V4.93721C4.79292 2.21896 7.01193 0 9.73018 0Z" fill="#00733B"/>
<path opacity="0.302" fill-rule="evenodd" clip-rule="evenodd" d="M22.4316 0V11.1365H33.2076L22.4316 0Z" fill="white"/>
<path d="M26.2819 27L22.9219 18.6H24.3979L26.4019 23.7C26.4979 23.948 26.5819 24.172 26.6539 24.372C26.7339 24.572 26.8019 24.756 26.8579 24.924C26.9139 25.084 26.9659 25.236 27.0139 25.38C27.0619 25.524 27.1099 25.668 27.1579 25.812L26.8459 25.824C26.9019 25.632 26.9619 25.432 27.0259 25.224C27.0899 25.016 27.1619 24.788 27.2419 24.54C27.3299 24.292 27.4339 24.012 27.5539 23.7L29.4139 18.6H30.9259L27.5419 27H26.2819Z" fill="white"/>
<path d="M18.9121 27.12C18.4561 27.12 18.0321 27.06 17.6401 26.94C17.2561 26.82 16.9041 26.64 16.5841 26.4C16.2721 26.152 15.9921 25.848 15.7441 25.488L16.6321 24.468C17.0241 25.028 17.4001 25.416 17.7601 25.632C18.1201 25.848 18.5481 25.956 19.0441 25.956C19.3481 25.956 19.6241 25.908 19.8721 25.812C20.1201 25.716 20.3161 25.584 20.4601 25.416C20.6041 25.248 20.6761 25.056 20.6761 24.84C20.6761 24.696 20.6521 24.56 20.6041 24.432C20.5561 24.304 20.4801 24.188 20.3761 24.084C20.2801 23.98 20.1521 23.884 19.9921 23.796C19.8401 23.708 19.6601 23.632 19.4521 23.568C19.2441 23.496 19.0041 23.436 18.7321 23.388C18.3001 23.3 17.9241 23.184 17.6041 23.04C17.2841 22.896 17.0161 22.716 16.8001 22.5C16.5841 22.284 16.4241 22.04 16.3201 21.768C16.2161 21.488 16.1641 21.176 16.1641 20.832C16.1641 20.496 16.2361 20.184 16.3801 19.896C16.5321 19.608 16.7361 19.36 16.9921 19.152C17.2561 18.936 17.5641 18.772 17.9161 18.66C18.2681 18.54 18.6481 18.48 19.0561 18.48C19.4881 18.48 19.8841 18.536 20.2441 18.648C20.6041 18.76 20.9241 18.928 21.2041 19.152C21.4841 19.368 21.7161 19.636 21.9001 19.956L20.9881 20.856C20.8281 20.592 20.6481 20.372 20.4481 20.196C20.2481 20.012 20.0281 19.876 19.7881 19.788C19.5481 19.692 19.2921 19.644 19.0201 19.644C18.7081 19.644 18.4361 19.692 18.2041 19.788C17.9721 19.884 17.7881 20.02 17.6521 20.196C17.5241 20.364 17.4601 20.564 17.4601 20.796C17.4601 20.964 17.4921 21.12 17.5561 21.264C17.6201 21.4 17.7161 21.524 17.8441 21.636C17.9801 21.74 18.1601 21.836 18.3841 21.924C18.6081 22.004 18.8761 22.076 19.1881 22.14C19.6281 22.236 20.0201 22.36 20.3641 22.512C20.7081 22.656 21.0001 22.828 21.2401 23.028C21.4801 23.228 21.6601 23.452 21.7801 23.7C21.9081 23.948 21.9721 24.216 21.9721 24.504C21.9721 25.04 21.8481 25.504 21.6001 25.896C21.3521 26.288 21.0001 26.592 20.5441 26.808C20.0881 27.016 19.5441 27.12 18.9121 27.12Z" fill="white"/>
<path d="M11.5842 27.12C11.0002 27.12 10.4642 27.016 9.97617 26.808C9.48817 26.6 9.06417 26.304 8.70417 25.92C8.34417 25.528 8.06417 25.068 7.86417 24.54C7.67217 24.012 7.57617 23.432 7.57617 22.8C7.57617 22.2 7.68017 21.644 7.88817 21.132C8.10417 20.612 8.40017 20.156 8.77617 19.764C9.15217 19.372 9.58817 19.068 10.0842 18.852C10.5802 18.636 11.1162 18.528 11.6922 18.528C12.1002 18.528 12.4962 18.592 12.8802 18.72C13.2722 18.84 13.6242 19.012 13.9362 19.236C14.2562 19.452 14.5162 19.7 14.7162 19.98L13.8522 20.88C13.6202 20.648 13.3842 20.456 13.1442 20.304C12.9122 20.144 12.6722 20.024 12.4242 19.944C12.1842 19.864 11.9402 19.824 11.6922 19.824C11.3002 19.824 10.9322 19.9 10.5882 20.052C10.2522 20.196 9.95617 20.4 9.70017 20.664C9.45217 20.928 9.25617 21.244 9.11217 21.612C8.96817 21.972 8.89617 22.368 8.89617 22.8C8.89617 23.256 8.96417 23.672 9.10017 24.048C9.24417 24.416 9.44417 24.732 9.70017 24.996C9.95617 25.26 10.2602 25.464 10.6122 25.608C10.9722 25.744 11.3682 25.812 11.8002 25.812C12.0642 25.812 12.3242 25.776 12.5802 25.704C12.8362 25.632 13.0762 25.528 13.3002 25.392C13.5242 25.256 13.7282 25.096 13.9122 24.912L14.5602 25.968C14.3762 26.184 14.1242 26.38 13.8042 26.556C13.4922 26.732 13.1402 26.872 12.7482 26.976C12.3642 27.072 11.9762 27.12 11.5842 27.12Z" fill="white"/>
</svg>
