<svg width="17" height="17" viewBox="0 0 17 17" fill="none" xmlns="http://www.w3.org/2000/svg">
<path d="M14.706 0C14.7858 0.0133386 14.952 0.0333464 15.1116 0.0733621C16.295 0.380149 17.2524 1.83405 16.9399 2.90114C16.8402 3.22793 16.6474 3.5614 16.4147 3.80149C13.9548 6.2958 11.4749 8.77678 8.99505 11.2511C8.88203 11.3645 8.72911 11.4512 8.5762 11.4912C7.45927 11.8113 6.34233 12.1181 5.2254 12.4249C4.77331 12.5516 4.51402 12.2915 4.64034 11.8313C4.93952 10.7175 5.24534 9.60377 5.56447 8.49667C5.61101 8.32326 5.71738 8.14986 5.8437 8.02315C8.29697 5.54884 10.7569 3.08788 13.2168 0.620243C13.6091 0.226756 14.0744 0.00666928 14.7193 0L14.706 0ZM12.7979 2.3009C10.7768 4.32836 8.72911 6.3825 6.6947 8.4233C7.3263 9.05689 7.98449 9.71714 8.61609 10.3507C10.6439 8.3166 12.6916 6.26246 14.7193 4.22832C14.0811 3.58807 13.4295 2.93448 12.7913 2.29423L12.7979 2.3009ZM13.4761 1.56728C14.1476 2.24088 14.7991 2.89447 15.4573 3.55473C16.3615 2.76775 16.3881 2.25422 15.6501 1.44723C14.8855 0.613574 14.1675 0.680267 13.4761 1.56728ZM6.20272 9.31699C6.01656 9.99058 5.8304 10.6909 5.6243 11.4445C6.38887 11.2311 7.08031 11.0377 7.73185 10.8509C7.21992 10.3307 6.71464 9.83052 6.20272 9.31699Z" fill="black"/>
<path d="M8.04458 17C6.10325 17 4.16856 17 2.22722 17C1.09699 17 0.259288 16.3197 0.0398905 15.246C0.00664842 15.0926 0.00664842 14.9392 0.00664842 14.7858C0 11.1444 0 7.5096 0 3.87485C0 2.57434 0.890888 1.66731 2.18068 1.66064C3.3641 1.66064 4.55417 1.66064 5.73758 1.66064C6.0966 1.66064 6.3027 1.81404 6.30935 2.07414C6.30935 2.33424 6.10325 2.50097 5.75088 2.50764C4.62065 2.50764 3.49042 2.50764 2.36019 2.50764C1.32968 2.50764 0.857646 2.98116 0.857646 4.00823C0.857646 7.55629 0.857646 11.0977 0.857646 14.6457C0.857646 15.6528 1.34298 16.1397 2.34024 16.1397C6.16308 16.1397 9.98592 16.1397 13.8088 16.1397C14.7794 16.1397 15.2914 15.6328 15.2914 14.6657C15.2914 13.5186 15.2914 12.3782 15.2914 11.2311C15.2914 10.8576 15.431 10.6708 15.7036 10.6642C15.9695 10.6642 16.1357 10.8643 16.1424 11.2177C16.1424 12.4049 16.1557 13.5987 16.1424 14.7858C16.1224 16.093 15.2116 16.9867 13.9018 16.9933C11.9539 16.9933 9.99922 16.9933 8.05123 16.9933L8.04458 17Z" fill="black"/>
</svg>
