<svg width="11" height="11" viewBox="0 0 11 11" fill="none" xmlns="http://www.w3.org/2000/svg">
<g clip-path="url(#clip0_884_97)">
<path d="M0.916667 2.29169H2.54146C2.59728 2.61036 2.76369 2.89915 3.01142 3.10725C3.25914 3.31534 3.5723 3.42943 3.89583 3.42943C4.21936 3.42943 4.53253 3.31534 4.78025 3.10725C5.02797 2.89915 5.19438 2.61036 5.25021 2.29169H10.0833C10.1441 2.29169 10.2024 2.26754 10.2454 2.22457C10.2884 2.18159 10.3125 2.1233 10.3125 2.06252C10.3125 2.00174 10.2884 1.94345 10.2454 1.90048C10.2024 1.8575 10.1441 1.83336 10.0833 1.83336H5.25021C5.19438 1.51468 5.02797 1.2259 4.78025 1.0178C4.53253 0.8097 4.21936 0.695618 3.89583 0.695618C3.5723 0.695618 3.25914 0.8097 3.01142 1.0178C2.76369 1.2259 2.59728 1.51468 2.54146 1.83336H0.916667C0.855888 1.83336 0.797598 1.8575 0.754621 1.90048C0.711644 1.94345 0.6875 2.00174 0.6875 2.06252C0.6875 2.1233 0.711644 2.18159 0.754621 2.22457C0.797598 2.26754 0.855888 2.29169 0.916667 2.29169ZM3.89583 1.14586C4.07713 1.14586 4.25436 1.19962 4.40511 1.30034C4.55585 1.40107 4.67334 1.54423 4.74272 1.71173C4.8121 1.87923 4.83026 2.06354 4.79489 2.24135C4.75952 2.41917 4.67221 2.58251 4.54401 2.7107C4.41582 2.8389 4.25248 2.92621 4.07467 2.96158C3.89685 2.99695 3.71254 2.97879 3.54504 2.90941C3.37754 2.84003 3.23438 2.72254 3.13365 2.57179C3.03293 2.42105 2.97917 2.24382 2.97917 2.06252C2.97917 1.81941 3.07574 1.58625 3.24765 1.41434C3.41956 1.24243 3.65272 1.14586 3.89583 1.14586ZM10.0833 5.27086H8.45854C8.40272 4.95218 8.23631 4.6634 7.98858 4.4553C7.74086 4.2472 7.4277 4.13312 7.10417 4.13312C6.78064 4.13312 6.46747 4.2472 6.21975 4.4553C5.97203 4.6634 5.80562 4.95218 5.74979 5.27086H0.916667C0.855888 5.27086 0.797598 5.295 0.754621 5.33798C0.711644 5.38095 0.6875 5.43924 0.6875 5.50002C0.6875 5.5608 0.711644 5.61909 0.754621 5.66207C0.797598 5.70504 0.855888 5.72919 0.916667 5.72919H5.74979C5.80562 6.04786 5.97203 6.33665 6.21975 6.54475C6.46747 6.75284 6.78064 6.86693 7.10417 6.86693C7.4277 6.86693 7.74086 6.75284 7.98858 6.54475C8.23631 6.33665 8.40272 6.04786 8.45854 5.72919H10.0833C10.1441 5.72919 10.2024 5.70504 10.2454 5.66207C10.2884 5.61909 10.3125 5.5608 10.3125 5.50002C10.3125 5.43924 10.2884 5.38095 10.2454 5.33798C10.2024 5.295 10.1441 5.27086 10.0833 5.27086ZM7.10417 6.41669C6.92287 6.41669 6.74564 6.36293 6.59489 6.2622C6.44415 6.16148 6.32666 6.01831 6.25728 5.85082C6.1879 5.68332 6.16974 5.49901 6.20511 5.32119C6.24048 5.14337 6.32779 4.98004 6.45599 4.85184C6.58418 4.72364 6.74752 4.63634 6.92533 4.60097C7.10315 4.5656 7.28746 4.58375 7.45496 4.65313C7.62246 4.72251 7.76562 4.84 7.86635 4.99075C7.96707 5.14149 8.02083 5.31872 8.02083 5.50002C8.02083 5.74314 7.92426 5.97629 7.75235 6.1482C7.58044 6.32011 7.34728 6.41669 7.10417 6.41669ZM10.0833 8.70836H5.25021C5.19438 8.38968 5.02797 8.10089 4.78025 7.8928C4.53253 7.6847 4.21936 7.57062 3.89583 7.57062C3.5723 7.57062 3.25914 7.6847 3.01142 7.8928C2.76369 8.10089 2.59728 8.38968 2.54146 8.70836H0.916667C0.855888 8.70836 0.797598 8.7325 0.754621 8.77548C0.711644 8.81845 0.6875 8.87674 0.6875 8.93752C0.6875 8.9983 0.711644 9.05659 0.754621 9.09957C0.797598 9.14255 0.855888 9.16669 0.916667 9.16669H2.54146C2.59728 9.48536 2.76369 9.77415 3.01142 9.98225C3.25914 10.1903 3.5723 10.3044 3.89583 10.3044C4.21936 10.3044 4.53253 10.1903 4.78025 9.98225C5.02797 9.77415 5.19438 9.48536 5.25021 9.16669H10.0833C10.1441 9.16669 10.2024 9.14255 10.2454 9.09957C10.2884 9.05659 10.3125 8.9983 10.3125 8.93752C10.3125 8.87674 10.2884 8.81845 10.2454 8.77548C10.2024 8.7325 10.1441 8.70836 10.0833 8.70836ZM3.89583 9.85419C3.71453 9.85419 3.53731 9.80043 3.38656 9.6997C3.23582 9.59898 3.11832 9.45581 3.04894 9.28832C2.97956 9.12082 2.96141 8.93651 2.99678 8.75869C3.03215 8.58087 3.11945 8.41754 3.24765 8.28934C3.37585 8.16114 3.53918 8.07384 3.717 8.03847C3.89482 8.0031 4.07913 8.02125 4.24663 8.09063C4.41413 8.16001 4.55729 8.2775 4.65801 8.42825C4.75874 8.57899 4.8125 8.75622 4.8125 8.93752C4.8125 9.18064 4.71592 9.41379 4.54401 9.5857C4.37211 9.75761 4.13895 9.85419 3.89583 9.85419Z" fill="#152334"/>
</g>
<defs>
<clipPath id="clip0_884_97">
<rect width="11" height="11" fill="white"/>
</clipPath>
</defs>
</svg>
