<svg width="25" height="25" viewBox="0 0 25 25" fill="none" xmlns="http://www.w3.org/2000/svg">
<g clip-path="url(#clip0_70_1694)">
<path d="M24.9892 8.39047V2.78194C24.9892 1.25099 23.7437 0.00543213 22.2127 0.00543213H2.77651C1.24551 0.00543213 0 1.25099 0 2.78194V22.2182C0 23.7491 1.24551 24.9947 2.77651 24.9947H22.2127C23.7437 24.9947 24.9893 23.7492 24.9893 22.2182V8.64189C24.9963 8.60102 25 8.55903 25 8.51616C25 8.47329 24.9963 8.43134 24.9892 8.39047ZM17.0134 1.46949H22.2127C22.9364 1.46949 23.5252 2.05826 23.5252 2.78194V7.78418H17.0134V1.46949ZM7.58475 23.5306H2.77651C2.05278 23.5306 1.46406 22.9419 1.46406 22.2182V17.2129H7.58475V23.5306ZM7.58475 15.7488H1.46406V9.24824H7.58475V15.7488ZM7.5848 7.78418H1.46406V2.78194C1.46406 2.05826 2.05278 1.46949 2.77651 1.46949H7.5848V7.78418ZM15.5494 23.5306H9.04876V17.2129H15.5494V23.5306ZM15.5494 15.7488H9.04876V9.24824H15.5494V15.7488ZM15.5494 7.78418H9.04876V1.46949H15.5494V7.78418ZM23.5252 22.2182C23.5252 22.9419 22.9364 23.5306 22.2127 23.5306H17.0134V17.2129H23.5252V22.2182ZM23.5252 15.7488H17.0134V9.24824H23.5252V15.7488Z" fill="black"/>
</g>
<defs>
<clipPath id="clip0_70_1694">
<rect width="25" height="25" fill="white"/>
</clipPath>
</defs>
</svg>
