<svg width="18" height="18" viewBox="0 0 18 18" fill="none" xmlns="http://www.w3.org/2000/svg">
<path d="M9 18C4.02943 18 0 13.9706 0 9C0 4.02943 4.02943 0 9 0C13.9706 0 18 4.02943 18 9C18 13.9706 13.9706 18 9 18ZM9 1.125C4.65075 1.125 1.125 4.65075 1.125 9C1.125 13.3492 4.65075 16.875 9 16.875C13.3492 16.875 16.875 13.3492 16.875 9C16.875 4.65075 13.3492 1.125 9 1.125Z" fill="black"/>
<path d="M8.223 10.37L7.859 8.576C8.16233 8.498 8.43967 8.41133 8.691 8.316C8.951 8.22067 9.17633 8.11667 9.367 8.004C9.55767 7.88267 9.718 7.75267 9.848 7.614C9.98667 7.47533 10.0863 7.32367 10.147 7.159C10.2163 6.99433 10.251 6.821 10.251 6.639C10.251 6.41367 10.1947 6.21433 10.082 6.041C9.96933 5.86767 9.809 5.73333 9.601 5.638C9.393 5.54267 9.16333 5.495 8.912 5.495C8.58267 5.495 8.262 5.60767 7.95 5.833C7.638 6.05833 7.365 6.392 7.131 6.834L6 5.833C6.37267 5.25233 6.819 4.80167 7.339 4.481C7.86767 4.16033 8.42233 4 9.003 4C9.55767 4 10.056 4.11267 10.498 4.338C10.94 4.56333 11.291 4.87533 11.551 5.274C11.811 5.664 11.941 6.106 11.941 6.6C11.941 6.89467 11.8803 7.18933 11.759 7.484C11.6377 7.77 11.4643 8.03867 11.239 8.29C11.0137 8.54133 10.7493 8.76667 10.446 8.966C10.1427 9.15667 9.809 9.31267 9.445 9.434L9.263 10.37H8.223ZM7.755 12.346C7.755 12.0427 7.846 11.7957 8.028 11.605C8.21 11.4057 8.44833 11.306 8.743 11.306C9.04633 11.306 9.28467 11.397 9.458 11.579C9.63133 11.7523 9.718 12.008 9.718 12.346C9.718 12.6493 9.627 12.9007 9.445 13.1C9.263 13.2907 9.029 13.386 8.743 13.386C8.431 13.386 8.18833 13.295 8.015 13.113C7.84167 12.931 7.755 12.6753 7.755 12.346Z" fill="#136DA5"/>
</svg>
