<svg width="30" height="30" viewBox="0 0 30 30" fill="none" xmlns="http://www.w3.org/2000/svg">
<path d="M28.5036 25.8935H8.44273C7.61593 25.8935 6.9458 25.2233 6.9458 24.3965C6.9458 23.5697 7.61593 22.8996 8.44273 22.8996H28.5031C29.3299 22.8996 30 23.5697 30 24.3965C30 25.2233 29.3304 25.8935 28.5036 25.8935Z" fill="black"/>
<path d="M28.5036 16.4972H8.44273C7.61593 16.4972 6.9458 15.8271 6.9458 15.0003C6.9458 14.1735 7.61593 13.5034 8.44273 13.5034H28.5031C29.3299 13.5034 30 14.1735 30 15.0003C30.0005 15.8271 29.3304 16.4972 28.5036 16.4972Z" fill="black"/>
<path d="M28.5036 7.10098H8.44273C7.61593 7.10098 6.9458 6.43085 6.9458 5.60405C6.9458 4.77724 7.61593 4.10712 8.44273 4.10712H28.5031C29.3299 4.10712 30 4.77724 30 5.60405C30 6.43085 29.3304 7.10098 28.5036 7.10098Z" fill="black"/>
<path d="M2.01038 7.73017C3.12068 7.73017 4.02076 6.83009 4.02076 5.71979C4.02076 4.60949 3.12068 3.70941 2.01038 3.70941C0.900077 3.70941 0 4.60949 0 5.71979C0 6.83009 0.900077 7.73017 2.01038 7.73017Z" fill="black"/>
<path d="M2.01038 17.0106C3.12068 17.0106 4.02076 16.1105 4.02076 15.0002C4.02076 13.8899 3.12068 12.9899 2.01038 12.9899C0.900077 12.9899 0 13.8899 0 15.0002C0 16.1105 0.900077 17.0106 2.01038 17.0106Z" fill="black"/>
<path d="M2.01038 26.2911C3.12068 26.2911 4.02076 25.3911 4.02076 24.2808C4.02076 23.1705 3.12068 22.2704 2.01038 22.2704C0.900077 22.2704 0 23.1705 0 24.2808C0 25.3911 0.900077 26.2911 2.01038 26.2911Z" fill="black"/>
</svg>
