<svg width="117" height="128" viewBox="0 0 117 128" fill="none" xmlns="http://www.w3.org/2000/svg">
<path d="M97.7192 97.7615H94.7357L88.8922 60.5295C88.8393 59.3644 88.2567 58.3228 87.1269 57.4048C87.1269 57.7226 87.1269 58.058 87.1092 58.3934V60.759L84.8142 61.6594L82.8017 62.4185C82.731 62.4538 82.6604 62.4714 82.5898 62.5067C82.0779 62.7186 81.5306 62.9128 80.9304 63.107C79.8182 63.4777 78.5471 63.8308 77.1348 64.1309L76.9229 64.1839H76.8876C76.8523 64.1839 76.817 64.2015 76.7817 64.2192C76.6934 64.2368 76.5875 64.2545 76.4992 64.2721C75.2458 64.5369 73.8865 64.7664 72.4742 64.9783C72.3859 64.9783 72.2976 64.9959 72.2094 65.0136C71.4679 65.1195 70.6911 65.2078 69.8967 65.2961C68.3255 65.4902 66.6661 65.6315 64.9713 65.7374C63.4001 65.8433 61.7936 65.9139 60.1694 65.9316C59.1632 65.9669 58.1392 65.9846 57.1153 65.9846C50.3892 65.9846 44.0515 65.4549 38.7906 64.484L37.3783 64.2015C37.3254 64.1839 37.2901 64.1662 37.2371 64.1662L36.8487 64.0779C36.4074 63.9897 35.9837 63.8837 35.5776 63.7778C35.1716 63.6896 34.8009 63.5836 34.4478 63.4777C32.3117 62.8598 31.0406 62.2772 30.2815 61.8536C30.0873 61.7653 29.9107 61.6594 29.7695 61.5711L29.7166 61.5358L27.4039 60.2471L27.1567 58.517C27.1038 58.1639 27.1038 57.8108 27.1038 57.4577C26.1681 58.4287 25.5149 59.4526 25.3737 60.353V60.3706C25.3384 60.4766 25.3384 60.5825 25.3384 60.6884C25.3384 60.8826 25.3561 61.0768 25.3737 61.271L25.3384 61.2533L19.495 97.7615H16.5115C15.5405 97.7615 14.7461 98.5382 14.7461 99.5269V106.588C14.7461 107.559 15.5405 108.354 16.5115 108.354H97.7192C98.6901 108.354 99.4846 107.559 99.4846 106.588V99.5269C99.4846 98.5382 98.6901 97.7615 97.7192 97.7615ZM36.6898 80.443C36.6898 77.7773 38.72 75.6236 41.2269 75.6236C43.7337 75.6236 45.7639 77.7773 45.7639 80.4254H68.4667C68.4491 77.7597 70.4793 75.6059 72.9861 75.6059C75.493 75.6059 77.5408 77.7597 77.5408 80.4077C77.5408 81.6435 77.0818 82.7734 76.358 83.6207C77.0818 84.4681 77.5408 85.5803 77.5408 86.8161C77.5408 89.4818 75.5106 91.6356 73.0038 91.6356C70.4969 91.6356 68.4667 89.4818 68.4667 86.8337H45.7639C45.7816 89.4995 43.7514 91.6532 41.2445 91.6532C38.7377 91.6532 36.6898 89.4995 36.6898 86.8514C36.6898 85.6156 37.1488 84.5034 37.8726 83.6384C37.1488 82.791 36.6898 81.6788 36.6898 80.443Z" fill="#136DA5"/>
<path d="M44.3066 16.6153L57.1143 30.4615L69.922 16.6153" stroke="#136DA5" stroke-width="6"/>
<path d="M44.3066 37.3846L57.1143 51.2308L69.922 37.3846" stroke="#136DA5" stroke-width="6"/>
<rect x="1.5" y="1.5" width="114" height="114.692" rx="8.5" stroke="#136DA5" stroke-width="3"/>
</svg>
