<svg width="34" height="34" viewBox="0 0 34 34" fill="none" xmlns="http://www.w3.org/2000/svg">
<path d="M16.5 10C13.7431 10 11.5 12.2431 11.5 15C11.5 15.8276 11.7069 16.6483 12.1003 17.3761L16.2266 24.8389C16.2815 24.9384 16.3862 25 16.5 25C16.6138 25 16.7185 24.9384 16.7734 24.8389L20.9012 17.3736C21.2931 16.6483 21.5 15.8276 21.5 15C21.5 12.2431 19.257 10 16.5 10ZM16.5 17.5C15.1215 17.5 14 16.3785 14 15C14 13.6215 15.1215 12.5 16.5 12.5C17.8785 12.5 19 13.6215 19 15C19 16.3785 17.8785 17.5 16.5 17.5Z" fill="#FF6F0C"/>
<circle cx="17" cy="17" r="16.5" stroke="black"/>
</svg>
