<svg width="14" height="14" viewBox="0 0 14 14" fill="none" xmlns="http://www.w3.org/2000/svg">
<g clip-path="url(#clip0_186_514)">
<path d="M6.18824 0.000366211H1.81346C1.57183 0.000366211 1.37598 0.19622 1.37598 0.437845V13.5622C1.37598 13.8038 1.57183 13.9997 1.81346 13.9997H6.18824C6.42987 13.9997 6.62572 13.8038 6.62572 13.5622V0.437845C6.62572 0.19622 6.42984 0.000366211 6.18824 0.000366211ZM5.75076 13.1247H2.25093V11.8123H4.43833V10.9373H2.25093V9.6249H3.56337V8.74994H2.25093V7.4375H4.43833V6.56255H2.25093V5.25011H3.56337V4.37515H2.25093V3.06272H4.43833V2.18776H2.25093V0.875323H5.75076V13.1247Z" fill="white"/>
<path d="M12.0071 11.0686L10.5634 12.5079V1.49216L12.0027 2.93146L12.6196 2.31462L10.4322 0.127224C10.2615 -0.0424081 9.98597 -0.0424081 9.81532 0.127224L7.62793 2.31462L8.24477 2.93146L9.68845 1.49216V12.5079L8.24915 11.0686L7.6323 11.6854L9.8197 13.8728C9.99034 14.0424 10.2659 14.0424 10.4365 13.8728L12.6239 11.6854L12.0071 11.0686Z" fill="white"/>
</g>
<defs>
<clipPath id="clip0_186_514">
<rect width="14" height="14" fill="white"/>
</clipPath>
</defs>
</svg>
