<svg width="34" height="34" viewBox="0 0 34 34" fill="none" xmlns="http://www.w3.org/2000/svg">
<circle cx="17" cy="17" r="16.5" stroke="black"/>
<g clip-path="url(#clip0_58_2059)">
<path d="M16.1882 10.0004H11.8135C11.5718 10.0004 11.376 10.1962 11.376 10.4378V23.5622C11.376 23.8038 11.5718 23.9997 11.8135 23.9997H16.1882C16.4299 23.9997 16.6257 23.8038 16.6257 23.5622V10.4378C16.6257 10.1962 16.4298 10.0004 16.1882 10.0004ZM15.7508 23.1247H12.2509V21.8123H14.4383V20.9373H12.2509V19.6249H13.5634V18.7499H12.2509V17.4375H14.4383V16.5625H12.2509V15.2501H13.5634V14.3752H12.2509V13.0627H14.4383V12.1878H12.2509V10.8753H15.7508V23.1247Z" fill="#86CCDE"/>
<path d="M22.0071 21.0686L20.5634 22.5079V11.4922L22.0027 12.9315L22.6196 12.3146L20.4322 10.1272C20.2615 9.95759 19.986 9.95759 19.8153 10.1272L17.6279 12.3146L18.2448 12.9315L19.6885 11.4922V22.5079L18.2491 21.0686L17.6323 21.6854L19.8197 23.8728C19.9903 24.0424 20.2659 24.0424 20.4365 23.8728L22.6239 21.6854L22.0071 21.0686Z" fill="#86CCDE"/>
</g>
<defs>
<clipPath id="clip0_58_2059">
<rect width="14" height="14" fill="white" transform="translate(10 10)"/>
</clipPath>
</defs>
</svg>
