<svg width="18" height="18" viewBox="0 0 18 18" fill="none" xmlns="http://www.w3.org/2000/svg">
<path d="M9 18C4.02943 18 0 13.9706 0 9C0 4.02943 4.02943 0 9 0C13.9706 0 18 4.02943 18 9C18 13.9706 13.9706 18 9 18ZM9 1.125C4.65075 1.125 1.125 4.65075 1.125 9C1.125 13.3492 4.65075 16.875 9 16.875C13.3492 16.875 16.875 13.3492 16.875 9C16.875 4.65075 13.3492 1.125 9 1.125Z" fill="black"/>
<path d="M9 7.875C9.62132 7.875 10.125 8.37868 10.125 9C10.125 9.62132 9.62132 10.125 9 10.125C8.37868 10.125 7.875 9.62132 7.875 9C7.875 8.37868 8.37868 7.875 9 7.875Z" fill="black"/>
<path d="M12.9375 7.875C13.5588 7.875 14.0625 8.37868 14.0625 9C14.0625 9.62132 13.5588 10.125 12.9375 10.125C12.3162 10.125 11.8125 9.62132 11.8125 9C11.8125 8.37868 12.3162 7.875 12.9375 7.875Z" fill="black"/>
<path d="M5.0625 7.875C5.68382 7.875 6.1875 8.37868 6.1875 9C6.1875 9.62132 5.68382 10.125 5.0625 10.125C4.44118 10.125 3.9375 9.62132 3.9375 9C3.9375 8.37868 4.44118 7.875 5.0625 7.875Z" fill="black"/>
</svg>
