<svg width="17" height="15" viewBox="0 0 17 15" fill="none" xmlns="http://www.w3.org/2000/svg">
<path fill-rule="evenodd" clip-rule="evenodd" d="M16.8789 1.91248C16.8789 1.1876 16.5058 0.599976 16.0456 0.599976H15.2122C14.752 0.599976 14.3789 1.1876 14.3789 1.91248V13.2875C14.3789 14.0123 14.752 14.6 15.2122 14.6H16.0456C16.5058 14.6 16.8789 14.0123 16.8789 13.2875V1.91248ZM11.071 3.39997H11.9043C12.3646 3.39997 12.7377 4.0017 12.7377 4.74397V13.256C12.7377 13.9982 12.3646 14.6 11.9043 14.6H11.071C10.6108 14.6 10.2377 13.9982 10.2377 13.256V4.74397C10.2377 4.0017 10.6108 3.39997 11.071 3.39997ZM7.68681 6.4333H6.85348C6.39324 6.4333 6.02014 7.04269 6.02014 7.79441V13.2389C6.02014 13.9906 6.39324 14.6 6.85348 14.6H7.68681C8.14705 14.6 8.52014 13.9906 8.52014 13.2389V7.79441C8.52014 7.04269 8.14705 6.4333 7.68681 6.4333ZM3.54557 9.23331H2.71224C2.252 9.23331 1.87891 9.83399 1.87891 10.575V13.2583C1.87891 13.9993 2.252 14.6 2.71224 14.6H3.54557C4.00581 14.6 4.37891 13.9993 4.37891 13.2583V10.575C4.37891 9.83399 4.00581 9.23331 3.54557 9.23331Z" fill="#B70808"/>
<path d="M4 5.6L2.264 3.088L0.04 0H1.336L3.032 2.48L5.296 5.6H4ZM0 5.6L2.136 2.552L2.872 3.184L1.216 5.6H0ZM3.16 3L2.432 2.392L4 0H5.216L3.16 3Z" fill="white"/>
</svg>
