<svg width="21" height="21" viewBox="0 0 21 21" fill="none" xmlns="http://www.w3.org/2000/svg">
<circle cx="10.5" cy="10.5" r="10.5" fill="white"/>
<g clip-path="url(#clip0_2191_86)">
<path d="M15.6455 6.16667H13.4637C13.3283 4.94954 12.2937 4 11.0413 4H9.95801C8.70567 4 7.67055 4.94954 7.53567 6.16667H5.35384C5.20434 6.16667 5.08301 6.288 5.08301 6.4375C5.08301 6.587 5.20434 6.70833 5.35384 6.70833H6.1658L6.15226 14.5625C6.15226 15.9064 7.24588 17 8.58976 17H12.3814C13.7253 17 14.8189 15.9064 14.8189 14.563L14.8325 6.70833H15.6455C15.795 6.70833 15.9163 6.587 15.9163 6.4375C15.9163 6.288 15.795 6.16667 15.6455 6.16667ZM9.95801 4.54167H11.0413C11.9947 4.54167 12.786 5.24908 12.9177 6.16667H8.08167C8.2133 5.24908 9.00467 4.54167 9.95801 4.54167ZM14.2778 14.5625C14.2778 15.6079 13.4274 16.4583 12.382 16.4583H8.5903C7.54488 16.4583 6.69447 15.6079 6.69447 14.563L6.70801 6.70833H14.2913L14.2778 14.5625Z" fill="#FF6F0C"/>
</g>
<defs>
<clipPath id="clip0_2191_86">
<rect width="13" height="13" fill="white" transform="translate(4 4)"/>
</clipPath>
</defs>
</svg>
