<svg width="26" height="27" viewBox="0 0 26 27" fill="none" xmlns="http://www.w3.org/2000/svg">
<path d="M20.746 9.66667C23.0921 9.66667 25 7.72317 25 5.33333C25 2.9435 23.0921 1 20.746 1C18.4 1 16.492 2.9435 16.492 5.33333C16.492 7.72317 18.4 9.66667 20.746 9.66667ZM20.746 3.16667C21.9191 3.16667 22.873 4.13842 22.873 5.33333C22.873 6.52825 21.9191 7.5 20.746 7.5C19.573 7.5 18.619 6.52825 18.619 5.33333C18.619 4.13842 19.573 3.16667 20.746 3.16667ZM24.2258 18.6009L24.2205 18.5803V18.5793L22.5476 11.5668C21.9754 11.738 21.3724 11.8344 20.746 11.8344C20.6354 11.8344 20.528 11.8236 20.4185 11.8171L22.1594 19.1133C22.1615 19.1209 22.1668 19.1263 22.1679 19.135H22.1637C22.2509 19.4687 22.186 19.8013 21.9839 20.0732C21.7797 20.3494 21.4777 20.5011 21.1374 20.5011H3.19091C2.86655 20.5011 2.56451 20.3527 2.36351 20.0992C2.15932 19.8392 2.08275 19.5055 2.14337 19.2195L4.64471 9.34275C5.43808 5.70708 8.5605 3.16775 12.2381 3.16775C13.0601 3.16775 13.8578 3.31075 14.6118 3.55883C14.8117 2.84275 15.1265 2.17758 15.5392 1.58608C14.498 1.20908 13.3856 1.00217 12.2381 1.00217C7.55656 1 3.58015 4.237 2.57728 8.83575L0.075937 18.7147C-0.133571 19.6788 0.0950799 20.6766 0.704462 21.4533C1.31384 22.2247 2.22101 22.6667 3.19091 22.6667H7.028C7.52253 25.1356 9.66972 27 12.2381 27C14.8064 27 16.9536 25.1356 17.4481 22.6667H21.1385C22.1456 22.6667 23.0708 22.1976 23.6802 21.3818C24.2715 20.5877 24.4661 19.5835 24.2268 18.6193C24.2258 18.6128 24.2268 18.6074 24.2268 18.6009H24.2258ZM12.2381 24.8333C10.8534 24.8333 9.68355 23.9244 9.24326 22.6667H15.2318C14.7915 23.9244 13.6217 24.8333 12.237 24.8333H12.2381Z" fill="black"/>
<circle cx="21" cy="5" r="5" fill="#E01616"/>
</svg>
