<svg width="25" height="26" viewBox="0 0 25 26" fill="none" xmlns="http://www.w3.org/2000/svg">
<path d="M20.746 8.66667C23.0921 8.66667 25 6.72317 25 4.33333C25 1.9435 23.0921 0 20.746 0C18.4 0 16.492 1.9435 16.492 4.33333C16.492 6.72317 18.4 8.66667 20.746 8.66667ZM20.746 2.16667C21.9191 2.16667 22.873 3.13842 22.873 4.33333C22.873 5.52825 21.9191 6.5 20.746 6.5C19.573 6.5 18.619 5.52825 18.619 4.33333C18.619 3.13842 19.573 2.16667 20.746 2.16667ZM24.2258 17.6009L24.2205 17.5803V17.5793L22.5476 10.5668C21.9754 10.738 21.3724 10.8344 20.746 10.8344C20.6354 10.8344 20.528 10.8236 20.4185 10.8171L22.1594 18.1133C22.1615 18.1209 22.1668 18.1263 22.1679 18.135H22.1637C22.2509 18.4687 22.186 18.8013 21.9839 19.0732C21.7797 19.3494 21.4777 19.5011 21.1374 19.5011H3.19091C2.86655 19.5011 2.56451 19.3527 2.36351 19.0992C2.15932 18.8392 2.08275 18.5055 2.14337 18.2195L4.64471 8.34275C5.43808 4.70708 8.5605 2.16775 12.2381 2.16775C13.0601 2.16775 13.8578 2.31075 14.6118 2.55883C14.8117 1.84275 15.1265 1.17758 15.5392 0.586083C14.498 0.209083 13.3856 0.00216667 12.2381 0.00216667C7.55656 0 3.58015 3.237 2.57728 7.83575L0.075937 17.7147C-0.133571 18.6788 0.0950799 19.6766 0.704462 20.4533C1.31384 21.2247 2.22101 21.6667 3.19091 21.6667H7.028C7.52253 24.1356 9.66972 26 12.2381 26C14.8064 26 16.9536 24.1356 17.4481 21.6667H21.1385C22.1456 21.6667 23.0708 21.1976 23.6802 20.3818C24.2715 19.5877 24.4661 18.5835 24.2268 17.6193C24.2258 17.6128 24.2268 17.6074 24.2268 17.6009H24.2258ZM12.2381 23.8333C10.8534 23.8333 9.68355 22.9244 9.24326 21.6667H15.2318C14.7915 22.9244 13.6217 23.8333 12.237 23.8333H12.2381Z" fill="black"/>
</svg>
