<svg width="24" height="29" viewBox="0 0 24 29" fill="none" xmlns="http://www.w3.org/2000/svg">
<path d="M1.46139 20.6645C1.29262 20.2948 1.1051 19.9313 0.955077 19.5554C-0.713894 15.3162 -0.220078 11.3111 2.6303 7.74345C5.54318 4.10189 9.44995 2.67854 14.1193 3.3132C14.1693 3.31936 14.2256 3.32552 14.3131 3.33168C14.2631 3.23926 14.2318 3.17764 14.1943 3.11602C13.8193 2.50602 13.438 1.89601 13.0629 1.286C12.8066 0.873172 12.9067 0.380238 13.3005 0.13377C13.688 -0.112697 14.2131 -0.01411 14.4694 0.392561C15.2757 1.67419 16.0696 2.95582 16.8572 4.24977C17.126 4.69341 17.0072 5.13089 16.5696 5.40817C15.3007 6.21535 14.0256 7.02253 12.7504 7.82971C12.3441 8.0885 11.894 8.02688 11.594 7.68183C11.3377 7.39223 11.3377 6.92394 11.6127 6.62202C11.694 6.5296 11.8003 6.46182 11.9065 6.4002C12.6066 5.9504 13.3067 5.50676 14.0131 5.06312C14.0256 5.05695 14.0381 5.04463 14.0693 5.01382C14.0006 4.99534 13.9505 4.97069 13.8943 4.96453C11.669 4.60099 9.52496 4.87826 7.51845 5.9011C4.36803 7.50314 2.45528 10.0356 1.8552 13.48C1.50515 15.4887 1.79269 17.4419 2.68656 19.2904C2.90534 19.7464 3.17412 20.1777 3.44291 20.6152C3.70544 21.0465 3.69919 21.4593 3.39915 21.7551C3.08036 22.0632 2.69906 22.0817 2.25525 21.8044C2.24275 21.7982 2.224 21.8044 2.21149 21.8044L1.4739 20.683L1.46139 20.6645Z" fill="black"/>
<path d="M9.86475 23.986C11.0065 24.1957 12.0854 24.2265 13.1707 24.0909C15.0401 23.8504 16.7338 23.1659 18.2205 22.0313C22.0848 19.0838 23.239 14.1877 21.5641 10.1919C21.2881 9.5383 20.9054 8.92167 20.5478 8.30504C20.2467 7.78706 20.46 7.1766 21.0309 7.0286C21.3759 6.93611 21.7397 7.07177 21.953 7.38008C23.4209 9.5198 24.111 11.8815 23.9855 14.459C23.8224 17.7395 22.4925 20.5144 20.0146 22.7158C17.129 25.2748 13.7227 26.2244 9.88357 25.6756C9.82712 25.6694 9.76438 25.6633 9.6452 25.6571C9.75811 25.8236 9.83966 25.9531 9.92121 26.0826C10.26 26.6252 10.5987 27.1679 10.9375 27.7167C11.1947 28.1298 11.0817 28.617 10.6865 28.8698C10.2913 29.1164 9.77693 29.0054 9.51346 28.5985C9.09943 27.9572 8.69796 27.3035 8.29648 26.6561C7.92637 26.0579 7.56252 25.4536 7.17987 24.8678C6.82857 24.3252 7.02304 23.8195 7.49352 23.5297C8.74814 22.7651 9.98394 21.9635 11.2323 21.1803C11.7404 20.8597 12.3238 21.0324 12.5371 21.5565C12.6814 21.9141 12.5559 22.3088 12.1983 22.5369C11.5083 22.9809 10.8183 23.4126 10.122 23.8442C10.0592 23.8874 9.99649 23.9244 9.8773 23.9984L9.86475 23.986Z" fill="black"/>
</svg>
