<svg width="219" height="154" viewBox="0 0 219 154" fill="none" xmlns="http://www.w3.org/2000/svg">
<path fill-rule="evenodd" clip-rule="evenodd" d="M152.325 94.5992C159.302 85.6583 163.453 74.4352 163.453 62.2481C163.453 33.0712 139.658 9.41724 110.308 9.41724C80.9575 9.41724 57.1628 33.0712 57.1628 62.2481C57.1628 67.3888 57.904 72.3523 59.2748 77.0498C59.3083 76.9667 59.3417 76.8836 59.3807 76.8061C60.3949 74.4573 61.9273 72.4575 63.7663 70.9175C65.6108 69.3664 67.7785 68.2696 70.0409 67.7323C74.9057 66.5745 80.1383 67.9649 83.6435 72.8951C86.6582 77.1385 86.6749 81.199 85.1369 84.29C84.4738 85.614 83.5209 86.7441 82.3896 87.6249C81.2696 88.4946 79.96 89.1261 78.578 89.4529C75.3627 90.2174 71.7963 89.392 69.2051 86.312C68.2744 85.2041 68.4193 83.5533 69.5338 82.6226C70.6483 81.692 72.3089 81.8416 73.2451 82.9495C74.4042 84.3288 75.9701 84.7055 77.3632 84.3731C78.0041 84.218 78.617 83.9244 79.152 83.5034C79.6758 83.099 80.1105 82.5783 80.417 81.969C81.1748 80.4567 81.0634 78.335 79.3359 75.9031C77.2406 72.9561 74.1312 72.1251 71.2557 72.8065C69.8013 73.15 68.3915 73.8756 67.1655 74.906C65.9284 75.9419 64.8975 77.2825 64.2232 78.8502C55.714 98.5932 95.7414 118.026 111.952 94.4385C111.952 94.4385 103.771 91.2921 104.167 85.8467C104.563 80.4068 108.653 76.9335 108.653 76.9335L109.182 71.9479L112.609 76.4737H120.127L124.679 69.9813C124.679 69.9813 125.075 78.7671 127.583 97.5185C128.263 102.615 128.107 107.634 127.516 112.243C137.429 108.869 146.022 102.665 152.319 94.5992H152.325Z" fill="#136DA5"/>
<path fill-rule="evenodd" clip-rule="evenodd" d="M116.226 55.4954C113.852 49.5957 112.994 39.3032 112.994 39.3032C112.994 39.3032 116.884 58.9078 123.743 57.6614C130.603 56.415 135.546 47.956 133.172 42.5827C130.798 37.2093 121.96 27.371 110.748 26.1911C99.5363 25.0111 94.1923 27.7643 92.214 30.0577C90.2358 32.3511 84.9586 33.1377 80.5396 33.3371C76.1206 33.5365 73.5517 32.6834 74.8668 40.5496C76.1875 48.4158 83.0472 48.4158 89.5058 52.7422C95.9699 57.0686 99.0014 63.4945 92.671 81.8526C89.5281 90.9708 90.871 99.2137 93.022 105.202C100.166 104.681 107.115 101.474 111.946 94.4441C111.946 94.4441 103.766 91.2976 104.162 85.8522C104.557 80.4124 108.647 76.9391 108.647 76.9391L109.177 71.9534L112.604 76.4793H120.121L124.674 69.9869C124.674 69.9869 125.07 78.7727 127.577 97.5241C128.257 102.62 128.101 107.639 127.51 112.248C137.424 108.875 146.017 102.67 152.314 94.6047C146.396 88.068 141.146 83.0714 138.706 81.0051C132.509 75.7591 127.956 59.434 127.956 59.434C127.956 59.434 128.09 59.434 125.253 60.481C122.417 61.528 118.594 61.4006 116.215 55.5009L116.226 55.4954Z" fill="#B4F0FC"/>
<path fill-rule="evenodd" clip-rule="evenodd" d="M98.9566 37.3588C98.5053 37.7244 97.8421 37.6579 97.4743 37.2092C97.1066 36.7605 97.179 36.1013 97.6248 35.7412C97.6304 35.7412 99.7981 33.9797 102.077 34.4838C104.741 35.071 104.485 39.1536 104.485 39.1647C104.457 39.7408 103.961 40.184 103.381 40.1563C102.802 40.1286 102.356 39.6356 102.384 39.0595C102.384 39.0539 102.523 36.7273 101.626 36.5279C100.344 36.2454 98.9566 37.3643 98.9566 37.3643V37.3588Z" fill="#474747"/>
<path fill-rule="evenodd" clip-rule="evenodd" d="M116.482 86.2067C116.376 86.4782 116.07 86.6111 115.802 86.5059C115.529 86.4006 115.396 86.096 115.502 85.8301C115.769 85.1487 116.137 84.6113 116.555 84.2513C116.95 83.9023 117.402 83.7084 117.87 83.6807C118.338 83.653 118.812 83.7915 119.252 84.1183C119.675 84.4341 120.071 84.916 120.4 85.5918C120.528 85.8522 120.417 86.168 120.155 86.2898C119.893 86.4172 119.575 86.3065 119.452 86.0461C119.202 85.5309 118.918 85.1708 118.622 84.9548C118.388 84.7831 118.154 84.7055 117.931 84.7221C117.703 84.7388 117.469 84.844 117.251 85.0324C116.962 85.2872 116.694 85.6805 116.488 86.2067H116.482Z" fill="#136DA5"/>
<path fill-rule="evenodd" clip-rule="evenodd" d="M110.91 85.5032C111.005 85.7747 110.854 86.0738 110.581 86.168C110.302 86.2621 110.007 86.1126 109.912 85.8411C109.717 85.2706 109.461 84.8496 109.188 84.6058C109.032 84.4673 108.87 84.3898 108.72 84.3787C108.575 84.3676 108.413 84.423 108.257 84.5449C107.99 84.7498 107.722 85.121 107.488 85.675C107.377 85.9409 107.065 86.0683 106.797 85.9519C106.53 85.8411 106.407 85.5365 106.519 85.2706C106.831 84.5393 107.21 84.0242 107.622 83.7139C107.995 83.4314 108.391 83.3096 108.787 83.3317C109.182 83.3539 109.556 83.5201 109.896 83.8192C110.302 84.1848 110.665 84.7554 110.921 85.5032H110.91Z" fill="#136DA5"/>
<path fill-rule="evenodd" clip-rule="evenodd" d="M111.328 87.1706C111.623 86.8161 113.345 87.0044 113.785 87.0598C113.874 87.0709 113.902 87.2537 113.874 87.3645C113.746 87.8132 112.793 88.7549 112.381 88.7273C111.846 88.6885 111.306 87.6969 111.328 87.1706Z" fill="#136DA5"/>
<path d="M62.284 114.68H75.0284C80.7402 114.68 83.0751 116.575 83.0751 120.508C83.0751 124.441 81.0801 130.551 72.1752 130.551H67.5389L66.3408 136.506H57.8984L62.2896 114.68H62.284ZM74.6271 122.159C74.6271 120.934 74.0142 120.386 72.387 120.386H69.5952L68.581 125.333H70.9437C73.429 125.333 74.6271 124.142 74.6271 122.159Z" fill="#136DA5"/>
<path d="M90.9769 114.68H103.599L105.198 136.506H96.8726L96.8447 133.149H90.5199L89.138 136.506H80.4448L90.9769 114.68ZM96.8113 127.654L96.6553 118.586H96.5327L92.7879 127.654H96.8113Z" fill="#136DA5"/>
<path d="M109.573 114.68H117.558L117.006 126.768H117.19L121.704 114.68H128.369L128.001 126.768H128.185L132.515 114.68H140.806L131.746 136.506H122.869L123.27 124.385H123.086L118.511 136.506H109.573V114.68Z" fill="#136DA5"/>
<path d="M138.7 136.168L139.87 130.396C141.62 130.978 144.016 131.343 147.025 131.343C148.992 131.343 149.973 130.856 149.973 129.814C149.973 129.05 149.544 128.778 148.101 128.562L146.134 128.285C142.172 127.737 140.578 126.147 140.578 122.546C140.578 117.234 144.69 114.121 151.756 114.121C154.704 114.121 156.515 114.337 159.524 114.974L158.204 121.477C155.964 121.078 153.657 120.868 152.029 120.868C149.544 120.868 148.803 121.328 148.803 122.397C148.803 123.189 149.327 123.466 150.77 123.682L152.52 123.926C156.85 124.535 158.326 126.186 158.326 128.9C158.326 133.875 154.058 137.11 147.427 137.11C143.743 137.11 141.653 136.866 138.706 136.163L138.7 136.168Z" fill="#136DA5"/>
<path d="M95.0783 140.4H97.2349C98.7673 140.4 99.436 140.927 99.436 142.107C99.436 143.159 98.8788 145.009 96.4659 145.009H94.1477L95.0727 140.4H95.0783ZM97.6361 142.505C97.6361 142.057 97.3965 141.874 96.8448 141.874H96.477L96.1092 143.73H96.555C97.4188 143.73 97.6361 142.971 97.6361 142.505Z" fill="#136DA5"/>
<path d="M100.511 140.4H102.295L101.37 145.009H99.5864L100.511 140.4Z" fill="#136DA5"/>
<path d="M102.445 143.264C102.445 142.378 102.913 140.279 105.477 140.279C106.039 140.279 106.691 140.373 107.304 140.589L106.998 142.095C106.619 141.979 106.078 141.891 105.61 141.891C104.518 141.891 104.317 142.76 104.317 143.292C104.317 143.73 104.535 143.924 104.958 143.924H105.036L105.27 142.744H106.92L106.519 144.738C105.889 144.998 105.176 145.137 104.457 145.137C103.052 145.137 102.445 144.655 102.445 143.264Z" fill="#136DA5"/>
<path d="M108.157 140.4H109.94L109.015 145.009H107.232L108.157 140.4Z" fill="#136DA5"/>
<path d="M111.456 141.918H110.236L110.542 140.395H114.766L114.46 141.918H113.239L112.615 145.009H110.832L111.456 141.918Z" fill="#136DA5"/>
<path d="M115.964 140.4H118.628L118.968 145.009H117.212V144.3H115.869L115.58 145.009H113.746L115.97 140.4H115.964ZM117.196 143.137L117.162 141.22H117.134L116.343 143.137H117.196Z" fill="#136DA5"/>
<path d="M120.3 140.4H122.083L121.453 143.536H123.264L122.963 145.015H119.369L120.294 140.406L120.3 140.4Z" fill="#136DA5"/>
</svg>
