<svg width="88" height="88" viewBox="0 0 88 88" fill="none" xmlns="http://www.w3.org/2000/svg">
<circle cx="44" cy="44" r="44" fill="white"/>
<g clip-path="url(#clip0_4893_87)">
<path d="M43.6014 39.9754C47.3074 39.9754 50.5164 38.6462 53.1384 36.0238C55.7604 33.4018 57.0896 30.1936 57.0896 26.4873C57.0896 22.7822 55.7604 19.5736 53.138 16.9507C50.5156 14.3292 47.3069 13 43.6014 13C39.8951 13 36.6869 14.3292 34.0649 16.9512C31.4429 19.5732 30.1133 22.7818 30.1133 26.4873C30.1133 30.1936 31.4429 33.4022 34.0653 36.0242C36.6877 38.6458 39.8964 39.9754 43.6014 39.9754Z" fill="black"/>
<path d="M67.2016 56.0611C67.126 54.9699 66.973 53.7796 66.7479 52.5227C66.5206 51.2563 66.2279 50.0592 65.8776 48.965C65.5157 47.8341 65.0235 46.7173 64.4151 45.647C63.7836 44.5362 63.0419 43.5689 62.2097 42.7729C61.3394 41.9402 60.2738 41.2707 59.0416 40.7824C57.8137 40.2966 56.4529 40.0505 54.9973 40.0505C54.4257 40.0505 53.8728 40.2851 52.8051 40.9802C52.148 41.4087 51.3794 41.9044 50.5215 42.4525C49.7879 42.9199 48.7941 43.3578 47.5667 43.7543C46.3691 44.1418 45.1531 44.3384 43.953 44.3384C42.7529 44.3384 41.5374 44.1418 40.3385 43.7543C39.1123 43.3583 38.1185 42.9203 37.3858 42.4529C36.536 41.9099 35.767 41.4143 35.1 40.9798C34.0336 40.2847 33.4803 40.0501 32.9087 40.0501C31.4526 40.0501 30.0923 40.2966 28.8648 40.7828C27.6335 41.2703 26.5675 41.9398 25.6964 42.7734C24.8645 43.5697 24.1224 44.5366 23.4918 45.647C22.8838 46.7173 22.3916 47.8336 22.0293 48.9654C21.6794 50.0596 21.3867 51.2563 21.1594 52.5227C20.9343 53.7779 20.7813 54.9686 20.7057 56.0624C20.6313 57.1339 20.5938 58.246 20.5938 59.3692C20.5938 62.2925 21.523 64.659 23.3555 66.4043C25.1653 68.1265 27.56 69.0002 30.4721 69.0002H57.4365C60.3486 69.0002 62.7424 68.1269 64.5527 66.4043C66.3856 64.6602 67.3148 62.2933 67.3148 59.3688C67.3144 58.2405 67.2764 57.1275 67.2016 56.0611Z" fill="black"/>
</g>
<defs>
<clipPath id="clip0_4893_87">
<rect width="56" height="56" fill="white" transform="translate(16 13)"/>
</clipPath>
</defs>
</svg>
