<svg width="56" height="56" viewBox="0 0 56 56" fill="none" xmlns="http://www.w3.org/2000/svg">
<g clip-path="url(#clip0_70_202)">
<path d="M27.6014 26.9754C31.3074 26.9754 34.5164 25.6462 37.1384 23.0238C39.7604 20.4018 41.0896 17.1936 41.0896 13.4873C41.0896 9.78219 39.7604 6.57358 37.138 3.95073C34.5156 1.32916 31.3069 0 27.6014 0C23.8951 0 20.6869 1.32916 18.0649 3.95116C15.4429 6.57316 14.1133 9.78176 14.1133 13.4873C14.1133 17.1936 15.4429 20.4022 18.0653 23.0242C20.6877 25.6458 23.8964 26.9754 27.6014 26.9754Z" fill="black"/>
<path d="M51.2016 43.0611C51.126 41.9699 50.973 40.7796 50.7479 39.5227C50.5206 38.2563 50.2279 37.0592 49.8776 35.965C49.5157 34.8341 49.0235 33.7173 48.4151 32.647C47.7836 31.5362 47.0419 30.5689 46.2097 29.7729C45.3394 28.9402 44.2738 28.2707 43.0416 27.7824C41.8137 27.2966 40.4529 27.0505 38.9973 27.0505C38.4257 27.0505 37.8728 27.2851 36.8051 27.9802C36.148 28.4087 35.3794 28.9044 34.5215 29.4525C33.7879 29.9199 32.7941 30.3578 31.5667 30.7543C30.3691 31.1418 29.1531 31.3384 27.953 31.3384C26.7529 31.3384 25.5374 31.1418 24.3385 30.7543C23.1123 30.3583 22.1185 29.9203 21.3858 29.4529C20.536 28.9099 19.767 28.4143 19.1 27.9798C18.0336 27.2847 17.4803 27.0501 16.9087 27.0501C15.4526 27.0501 14.0923 27.2966 12.8648 27.7828C11.6335 28.2703 10.5675 28.9398 9.69635 29.7734C8.8645 30.5697 8.12238 31.5366 7.49176 32.647C6.88379 33.7173 6.3916 34.8336 6.0293 35.9654C5.67938 37.0596 5.38672 38.2563 5.15942 39.5227C4.93427 40.7779 4.78131 41.9686 4.70569 43.0624C4.63135 44.1339 4.59375 45.246 4.59375 46.3692C4.59375 49.2925 5.52301 51.659 7.35547 53.4043C9.16528 55.1265 11.56 56.0002 14.4721 56.0002H41.4365C44.3486 56.0002 46.7424 55.1269 48.5527 53.4043C50.3856 51.6602 51.3148 49.2933 51.3148 46.3688C51.3144 45.2405 51.2764 44.1275 51.2016 43.0611Z" fill="black"/>
</g>
<defs>
<clipPath id="clip0_70_202">
<rect width="56" height="56" fill="white"/>
</clipPath>
</defs>
</svg>
