<svg width="27" height="41" viewBox="0 0 27 41" fill="none" xmlns="http://www.w3.org/2000/svg">
<path d="M26.272 21.1923C26.272 20.393 25.6241 19.7451 24.8248 19.7451C24.0255 19.7451 23.3776 20.393 23.3776 21.1923C23.3767 26.8485 18.7907 31.4331 13.1345 31.4323C7.47942 31.4314 2.89531 26.8473 2.89446 21.1923C2.89446 20.393 2.2465 19.7451 1.44723 19.7451C0.647955 19.7451 0 20.393 0 21.1923C0.00763187 27.8837 5.03883 33.5025 11.6888 34.2463V38.1056H6.42575C5.62648 38.1056 4.97853 38.7535 4.97853 39.5528C4.97853 40.3521 5.62648 41 6.42575 41H19.8464C20.6456 41 21.2936 40.3521 21.2936 39.5528C21.2936 38.7535 20.6456 38.1056 19.8464 38.1056H14.5833V34.2463C21.2332 33.5025 26.2644 27.8837 26.272 21.1923Z" fill="black"/>
<path d="M13.1362 0C8.67889 0 5.06543 3.61336 5.06543 8.07075V21.1393C5.07071 25.5944 8.68105 29.2046 13.1362 29.21C17.5913 29.2047 21.2016 25.5944 21.2069 21.1393V8.07075C21.2069 3.61336 17.5936 0 13.1362 0Z" fill="black"/>
</svg>
