<svg width="24" height="16" viewBox="0 0 24 16" fill="none" xmlns="http://www.w3.org/2000/svg">
<g clip-path="url(#clip0_4022_104)">
<path d="M24 -8.69157e-06H0C0 4.13439 0 8.26879 0 12.4032C0 13.664 0.834957 14.464 2.15753 14.464C5.77122 14.464 9.39159 14.464 13.0053 14.464C13.4061 14.464 13.5998 14.336 13.5998 14.0736C13.5998 13.8112 13.4061 13.696 12.9986 13.696C9.37156 13.696 5.75118 13.696 2.12413 13.696C1.29585 13.696 0.801559 13.2224 0.801559 12.4288C0.801559 8.59519 0.801559 4.76159 0.801559 0.934391V0.684791H23.1984V0.991991C23.1984 3.02719 23.1984 5.06239 23.1984 7.09759C23.1984 7.38559 23.3454 7.55199 23.5859 7.56479C23.833 7.57119 23.9933 7.39199 24 7.09759C24 6.77759 24 6.45759 24 6.13759C24 4.08959 24 2.04159 24 -0.00640869V-8.69157e-06Z" fill="white"/>
<path d="M24 11.0336C23.9866 13.7984 21.6487 16.0128 18.7631 16C15.8842 15.9872 13.5797 13.7216 13.5997 10.9312C13.6265 8.21762 15.9911 6.01602 18.8633 6.03522C21.6955 6.05442 24.0133 8.31362 24 11.0272V11.0336ZM18.8099 6.80322C16.3584 6.80322 14.4013 8.68482 14.4013 11.0336C14.4013 13.3504 16.3918 15.2384 18.8232 15.232C21.2212 15.232 23.1984 13.3312 23.1984 11.0336C23.1984 8.69762 21.2279 6.79682 18.8099 6.80322Z" fill="white"/>
<path d="M4.80845 2.58561C5.07564 2.58561 5.34282 2.58561 5.61001 2.58561C6.05087 2.59841 6.38485 2.91201 6.39821 3.33441C6.41157 3.73121 6.41157 4.13441 6.39821 4.53121C6.38485 4.94081 6.05087 5.25441 5.63005 5.26721C5.08232 5.28001 4.5279 5.28001 3.98017 5.26721C3.55267 5.26081 3.21869 4.94081 3.20533 4.53121C3.19197 4.13441 3.19197 3.73121 3.20533 3.33441C3.21869 2.91201 3.55267 2.59841 3.98685 2.58561C4.26072 2.57921 4.53458 2.58561 4.80845 2.58561ZM4.00689 4.48641H5.58329V3.36641H4.00689V4.48641Z" fill="white"/>
<path d="M9.57835 5.26721C9.3312 5.26721 9.07738 5.26721 8.83023 5.26721C8.34929 5.26081 8.00863 4.94081 8.00195 4.48641C8.00195 4.10881 8.00195 3.73761 8.00195 3.36001C8.00863 2.91201 8.34261 2.59201 8.81019 2.58561C9.33788 2.57921 9.8589 2.58561 10.3866 2.58561C10.8542 2.58561 11.1881 2.91201 11.2015 3.35361C11.2082 3.73761 11.2082 4.12161 11.2015 4.50561C11.1948 4.94081 10.8608 5.25441 10.4066 5.26721C10.1328 5.27361 9.8589 5.26721 9.58503 5.26721H9.57835ZM10.3866 4.49281V3.37281H8.81687V4.49281H10.3866Z" fill="white"/>
<path d="M14.4019 5.26721C14.1414 5.26721 13.8876 5.26721 13.6271 5.26721C13.1462 5.26081 12.8055 4.94721 12.7988 4.48641C12.7988 4.10881 12.7988 3.73761 12.7988 3.36001C12.8055 2.91201 13.1395 2.59201 13.6071 2.58561C14.1348 2.57921 14.6558 2.58561 15.1835 2.58561C15.6644 2.58561 15.9917 2.91201 15.9984 3.37921C15.9984 3.74401 15.9984 4.11521 15.9984 4.48001C15.9917 4.94081 15.6577 5.26081 15.1768 5.26721C14.9163 5.26721 14.6625 5.26721 14.4019 5.26721ZM13.6071 4.48641H15.1768V3.36641H13.6071V4.48641Z" fill="white"/>
<path d="M19.2047 5.26721C18.9375 5.26721 18.6703 5.26721 18.4031 5.26721C17.9355 5.25441 17.6082 4.93441 17.6016 4.48641C17.6016 4.10881 17.6016 3.73761 17.6016 3.36001C17.6082 2.91201 17.9422 2.59201 18.4031 2.58561C18.9375 2.57921 19.4719 2.57921 19.9996 2.58561C20.4471 2.59201 20.7811 2.91841 20.7944 3.34721C20.8011 3.73121 20.8011 4.11521 20.7944 4.49921C20.7878 4.93441 20.4538 5.25441 19.9996 5.26721C19.7324 5.27361 19.4652 5.26721 19.198 5.26721H19.2047ZM19.9862 4.49281V3.36641H18.4165V4.49281H19.9862Z" fill="white"/>
<path d="M4.81003 8.7168C4.54284 8.7168 4.27566 8.7168 4.00847 8.7168C3.5409 8.704 3.20691 8.3904 3.20023 7.9424C3.19355 7.5648 3.20023 7.1936 3.20023 6.816C3.20691 6.368 3.53422 6.0416 4.00179 6.0352C4.53617 6.0288 5.07054 6.0288 5.59823 6.0352C6.05245 6.0416 6.38643 6.3616 6.39311 6.7968C6.39979 7.1808 6.39979 7.5648 6.39311 7.9488C6.38643 8.3968 6.05245 8.7104 5.57819 8.7168C5.31768 8.7168 5.06386 8.7168 4.80335 8.7168H4.81003ZM5.59155 6.8096H4.01515V7.9296H5.59155V6.8096Z" fill="white"/>
<path d="M9.60589 8.7168C9.3387 8.7168 9.07152 8.7168 8.80433 8.7168C8.33676 8.704 8.00945 8.384 7.99609 7.9424C7.99609 7.5648 7.99609 7.1936 7.99609 6.816C8.00277 6.368 8.33676 6.048 8.79765 6.0416C9.33202 6.0352 9.8664 6.0352 10.3941 6.0416C10.8416 6.048 11.1756 6.3744 11.189 6.8032C11.1956 7.1872 11.1956 7.5712 11.189 7.9552C11.1823 8.3968 10.8416 8.7104 10.3741 8.7232C10.1135 8.7232 9.85972 8.7232 9.59921 8.7232L9.60589 8.7168ZM10.3807 7.9424V6.816H8.81769V7.9424H10.3807Z" fill="white"/>
<path d="M4.7759 12.1664C4.51539 12.1664 4.26157 12.1664 4.00106 12.1664C3.54684 12.1536 3.21286 11.84 3.20618 11.4048C3.1995 11.0144 3.1995 10.624 3.20618 10.2336C3.21954 9.81118 3.54684 9.49758 3.9877 9.48478C4.52875 9.47838 5.06981 9.47838 5.61086 9.48478C6.05171 9.49118 6.3857 9.81118 6.39906 10.2336C6.41242 10.6304 6.41242 11.0336 6.39906 11.4304C6.3857 11.84 6.05171 12.1472 5.6309 12.1664C5.35035 12.1792 5.06313 12.1664 4.78258 12.1664H4.7759ZM4.00774 11.3792H5.58414V10.2656H4.00774V11.3792Z" fill="white"/>
<path d="M9.59942 9.48478C9.86661 9.48478 10.1338 9.48478 10.401 9.48478C10.8552 9.49758 11.1892 9.81118 11.2025 10.2464C11.2092 10.6368 11.2092 11.0272 11.2025 11.4176C11.1892 11.84 10.8552 12.1536 10.421 12.1664C9.87997 12.1728 9.33892 12.1728 8.79787 12.1664C8.35701 12.16 8.02303 11.84 8.00967 11.4176C7.99631 11.0272 8.00299 10.6368 8.00967 10.2464C8.01635 9.81118 8.35033 9.49758 8.80455 9.48478C9.07173 9.47838 9.33892 9.48478 9.6061 9.48478H9.59942ZM10.3876 10.2656H8.8179V11.3856H10.3876V10.2656Z" fill="white"/>
<path d="M13.6065 6.80322V7.93602C13.6533 7.95522 13.7 7.96802 13.7468 7.98722C13.9472 8.07682 14.0407 8.23042 13.9806 8.43522C13.9204 8.64002 13.7668 8.72962 13.5464 8.71682C13.159 8.69762 12.8183 8.38402 12.8049 8.00002C12.7916 7.58402 12.7916 7.16802 12.8049 6.75202C12.8183 6.35522 13.1523 6.04802 13.5664 6.03522C14.1008 6.02242 14.6352 6.02882 15.1695 6.03522C15.43 6.03522 15.597 6.19522 15.597 6.40642C15.597 6.63042 15.4234 6.79042 15.1562 6.79682C14.6485 6.79682 14.1409 6.79682 13.6065 6.79682V6.80322Z" fill="white"/>
<path d="M18.0143 12.4096C18.2815 12.1408 18.5286 11.8912 18.7825 11.648C19.5306 10.9312 20.272 10.208 21.0268 9.50402C21.127 9.40802 21.294 9.31842 21.4343 9.31842C21.7082 9.31842 21.8751 9.62562 21.7416 9.86242C21.7015 9.93922 21.628 10.0032 21.5679 10.0608C20.5125 11.072 19.4638 12.0832 18.4084 13.088C18.0878 13.3952 17.9208 13.3952 17.6135 13.0944C17.0992 12.6016 16.5849 12.1152 16.0772 11.6224C15.8768 11.424 15.8635 11.2192 16.0238 11.0528C16.1974 10.88 16.4312 10.88 16.6383 11.0784C17.0858 11.5072 17.5334 11.936 18.021 12.4032L18.0143 12.4096Z" fill="white"/>
</g>
<defs>
<clipPath id="clip0_4022_104">
<rect width="24" height="16" fill="white"/>
</clipPath>
</defs>
</svg>
