<?xml version="1.0" encoding="UTF-8"?>
<!DOCTYPE svg PUBLIC "-//W3C//DTD SVG 1.1//EN" "http://www.w3.org/Graphics/SVG/1.1/DTD/svg11.dtd">
<svg xmlns="http://www.w3.org/2000/svg" version="1.1" width="32px" height="32px" style="shape-rendering:geometricPrecision; text-rendering:geometricPrecision; image-rendering:optimizeQuality; fill-rule:evenodd; clip-rule:evenodd" xmlns:xlink="http://www.w3.org/1999/xlink">
<g><path style="opacity:0.986" fill="#176ea3" d="M 2.5,-0.5 C 11.1667,-0.5 19.8333,-0.5 28.5,-0.5C 29.1667,0.833333 30.1667,1.83333 31.5,2.5C 31.5,11.1667 31.5,19.8333 31.5,28.5C 30.1667,29.1667 29.1667,30.1667 28.5,31.5C 19.8333,31.5 11.1667,31.5 2.5,31.5C 1.83333,30.1667 0.833333,29.1667 -0.5,28.5C -0.5,19.8333 -0.5,11.1667 -0.5,2.5C 0.833333,1.83333 1.83333,0.833333 2.5,-0.5 Z"/></g>
<g><path style="opacity:1" fill="#b1cde0" d="M 22.5,23.5 C 16.5468,27.9026 11.0468,27.236 6,21.5C 2.36097,15.7905 3.52764,10.6238 9.5,6C 15.5849,3.23745 20.7515,4.40412 25,9.5C 25.7028,11.7801 26.8694,13.7801 28.5,15.5C 26.9478,18.6516 24.9478,21.3183 22.5,23.5 Z"/></g>
<g><path style="opacity:1" fill="#2674a8" d="M 22.5,23.5 C 11.7669,27.5934 6.26694,23.9268 6,12.5C 7.69456,9.3055 10.1946,6.97216 13.5,5.5C 14.8333,8.16667 16.1667,8.16667 17.5,5.5C 25.9647,9.62782 27.6314,15.6278 22.5,23.5 Z"/></g>
<g><path style="opacity:1" fill="#70a1c4" d="M 21.5,13.5 C 24.1667,14.8333 24.1667,16.1667 21.5,17.5C 20.4138,17.38 19.7472,16.7133 19.5,15.5C 19.7472,14.2867 20.4138,13.62 21.5,13.5 Z"/></g>
<g><path style="opacity:1" fill="#80adcb" d="M 9.5,13.5 C 10.5862,13.62 11.2528,14.2867 11.5,15.5C 11.2528,16.7133 10.5862,17.38 9.5,17.5C 6.83333,16.1667 6.83333,14.8333 9.5,13.5 Z"/></g>
<g><path style="opacity:1" fill="#cbdfea" d="M 21.5,13.5 C 20.4138,13.62 19.7472,14.2867 19.5,15.5C 19.7472,16.7133 20.4138,17.38 21.5,17.5C 21.3893,18.1174 21.056,18.6174 20.5,19C 19,19.1667 17.5,19.3333 16,19.5C 13.4563,19.664 11.2897,18.9973 9.5,17.5C 10.5862,17.38 11.2528,16.7133 11.5,15.5C 11.2528,14.2867 10.5862,13.62 9.5,13.5C 9.61071,12.8826 9.94404,12.3826 10.5,12C 12,11.8333 13.5,11.6667 15,11.5C 17.5437,11.336 19.7103,12.0027 21.5,13.5 Z"/></g>
<g><path style="opacity:1" fill="#1f73a7" d="M 13.5,12.5 C 18.1585,12.0146 19.4919,13.848 17.5,18C 12.7282,18.8104 11.3948,16.9771 13.5,12.5 Z"/></g>
<g><path style="opacity:1" fill="#a9c9dd" d="M 14.5,13.5 C 17.8606,14.2032 18.1939,15.5365 15.5,17.5C 13.3576,16.5629 13.0243,15.2296 14.5,13.5 Z"/></g>
</svg>
