<svg width="14" height="14" viewBox="0 0 14 14" fill="none" xmlns="http://www.w3.org/2000/svg">
<g clip-path="url(#clip0_17_150)">
<path d="M11.0251 9.78602C11.9564 8.54142 12.3817 6.99024 12.2153 5.44471C12.0489 3.89918 11.3032 2.47406 10.1283 1.45622C8.95341 0.438377 7.43657 -0.0966097 5.8831 -0.0410515C4.32964 0.0145068 2.85489 0.656485 1.75572 1.75565C0.656546 2.85482 0.0145678 4.32958 -0.0409904 5.88304C-0.0965487 7.43651 0.438438 8.95335 1.45628 10.1282C2.47412 11.3031 3.89924 12.0488 5.44477 12.2152C6.9903 12.3816 8.54149 11.9563 9.78608 11.025L12.7611 14L14.0001 12.7634L11.0251 9.78602ZM6.12508 10.5C5.25979 10.5 4.41392 10.2434 3.69446 9.7627C2.97499 9.28197 2.41424 8.59868 2.08311 7.79926C1.75197 6.99983 1.66533 6.12016 1.83414 5.2715C2.00295 4.42283 2.41963 3.64328 3.03149 3.03143C3.64334 2.41957 4.42289 2.00289 5.27156 1.83408C6.12023 1.66527 6.99989 1.75191 7.79932 2.08305C8.59875 2.41418 9.28203 2.97493 9.76276 3.6944C10.2435 4.41386 10.5001 5.25972 10.5001 6.12502C10.499 7.28501 10.0377 8.39718 9.21748 9.21742C8.39724 10.0377 7.28507 10.4989 6.12508 10.5Z" fill="black"/>
</g>
<defs>
<clipPath id="clip0_17_150">
<rect width="14" height="14" fill="white"/>
</clipPath>
</defs>
</svg>
