<svg width="8" height="8" viewBox="0 0 8 8" fill="none" xmlns="http://www.w3.org/2000/svg">
<g clip-path="url(#clip0_575_309)">
<path d="M3.16683 7.33335C2.96683 7.33335 2.8335 7.20002 2.8335 7.00002V1.00002C2.8335 0.80002 2.96683 0.666687 3.16683 0.666687C3.36683 0.666687 3.50016 0.80002 3.50016 1.00002V7.00002C3.50016 7.20002 3.36683 7.33335 3.16683 7.33335Z" fill="black"/>
<path d="M1.16683 3.33335C1.06683 3.33335 1.00016 3.30002 0.933496 3.23335C0.800163 3.10002 0.800163 2.90002 0.933496 2.76669L2.9335 0.766687C3.06683 0.633354 3.26683 0.633354 3.40016 0.766687C3.5335 0.90002 3.5335 1.10002 3.40016 1.23335L1.40016 3.23335C1.3335 3.30002 1.26683 3.33335 1.16683 3.33335Z" fill="black"/>
<path d="M4.83333 7.33335C4.63333 7.33335 4.5 7.20002 4.5 7.00002V1.00002C4.5 0.80002 4.63333 0.666687 4.83333 0.666687C5.03333 0.666687 5.16667 0.80002 5.16667 1.00002V7.00002C5.16667 7.20002 5.03333 7.33335 4.83333 7.33335Z" fill="black"/>
<path d="M4.83333 7.33335C4.73333 7.33335 4.66667 7.30002 4.6 7.23335C4.46667 7.10002 4.46667 6.90002 4.6 6.76669L6.6 4.76669C6.73333 4.63335 6.93333 4.63335 7.06667 4.76669C7.2 4.90002 7.2 5.10002 7.06667 5.23335L5.06667 7.23335C5 7.33335 4.93333 7.33335 4.83333 7.33335Z" fill="black"/>
</g>
<defs>
<clipPath id="clip0_575_309">
<rect width="8" height="8" fill="white"/>
</clipPath>
</defs>
</svg>
