<svg width="18" height="18" viewBox="0 0 18 18" fill="none" xmlns="http://www.w3.org/2000/svg">
<g clip-path="url(#clip0_1438_166)">
<path d="M17.8569 11.973L15.5738 10.6125L17.8569 9.25194C17.9456 9.19907 18 9.10339 18 9.00012C18 8.89686 17.9456 8.80118 17.8569 8.7483L15.5738 7.38775L17.8569 6.02721C17.996 5.94432 18.0415 5.76439 17.9586 5.62529C17.9337 5.58344 17.8987 5.54848 17.8569 5.52356L9.15012 0.33467C9.05763 0.279557 8.94238 0.279557 8.84993 0.33467L0.143141 5.52356C0.00407462 5.60645 -0.0414748 5.78638 0.0414156 5.92548C0.066334 5.96733 0.10133 6.00229 0.143141 6.02721L2.42625 7.38775L0.143105 8.7483C0.00403798 8.83119 -0.0415114 9.01112 0.041379 9.15022C0.0662974 9.19207 0.101293 9.22703 0.143105 9.25194L2.42622 10.6125L0.143105 11.973C0.00403798 12.0559 -0.0415114 12.2359 0.041379 12.375C0.0662974 12.4168 0.101293 12.4518 0.143105 12.4767L8.84989 17.6656C8.94246 17.7203 9.05752 17.7203 9.15009 17.6656L17.8569 12.4767C17.9959 12.3938 18.0415 12.2139 17.9586 12.0748C17.9337 12.0329 17.8987 11.998 17.8569 11.973ZM0.865739 5.77539L8.99999 0.927728L17.1342 5.77539L8.99999 10.623L0.865739 5.77539ZM0.865739 9.00012L2.99876 7.72928L8.84989 11.2179C8.94238 11.273 9.0576 11.273 9.15009 11.2179L15.0012 7.72928L17.1342 9.00012L8.99999 13.8478L0.865739 9.00012ZM8.99999 17.0725L0.865739 12.2249L2.99876 10.954L8.84989 14.4426C8.94238 14.4977 9.0576 14.4977 9.15009 14.4426L15.0012 10.954L17.1342 12.2249L8.99999 17.0725Z" fill="#86CCDE"/>
</g>
<defs>
<clipPath id="clip0_1438_166">
<rect width="18" height="18" fill="white"/>
</clipPath>
</defs>
</svg>
