<svg width="34" height="34" viewBox="0 0 34 34" fill="none" xmlns="http://www.w3.org/2000/svg">
<g clip-path="url(#clip0_13_5638)">
<path d="M30.4585 5.66667H24.7522C24.398 2.48342 21.6922 0 18.4168 0H15.5835C12.3082 0 9.60091 2.48342 9.24816 5.66667H3.54183C3.15083 5.66667 2.8335 5.984 2.8335 6.375C2.8335 6.766 3.15083 7.08333 3.54183 7.08333H5.66541L5.63 27.625C5.63 31.1397 8.49025 34 12.005 34H21.9217C25.4364 34 28.2967 31.1397 28.2967 27.6264L28.3321 7.08333H30.4585C30.8495 7.08333 31.1668 6.766 31.1668 6.375C31.1668 5.984 30.8495 5.66667 30.4585 5.66667ZM15.5835 1.41667H18.4168C20.9102 1.41667 22.9799 3.26683 23.3242 5.66667H10.6762C11.0204 3.26683 13.0902 1.41667 15.5835 1.41667ZM26.8814 27.625C26.8814 30.3592 24.6572 32.5833 21.9231 32.5833H12.0064C9.27225 32.5833 7.04808 30.3592 7.04808 27.6264L7.0835 7.08333H26.9168L26.8814 27.625Z" fill="white"/>
</g>
<defs>
<clipPath id="clip0_13_5638">
<rect width="34" height="34" fill="white"/>
</clipPath>
</defs>
</svg>
