<svg width="52" height="52" viewBox="0 0 52 52" fill="none" xmlns="http://www.w3.org/2000/svg">
<path d="M32.4991 47.6666H19.4991V37.089C19.4715 35.5538 19.9741 34.0561 20.9221 32.8483C21.8702 31.6406 23.2057 30.7967 24.7035 30.459C25.6478 30.2689 26.6225 30.2907 27.5574 30.5228C28.4923 30.755 29.364 31.1917 30.1097 31.8014C30.8554 32.4112 31.4565 33.1788 31.8697 34.0489C32.2829 34.9191 32.4979 35.87 32.4991 36.8333V47.6666Z" fill="#136DA5"/>
<path d="M41.166 21.6666H10.8305C10.2563 21.6672 9.70571 21.8957 9.29985 22.302C8.89399 22.7083 8.66602 23.259 8.66602 23.8333V45.5021C8.66659 46.0764 8.89512 46.6269 9.30138 47.0328C9.70765 47.4387 10.2584 47.6666 10.8327 47.6666H19.4993V37.089C19.4717 35.5538 19.9743 34.0561 20.9223 32.8483C21.8704 31.6406 23.2059 30.7967 24.7037 30.459C25.648 30.2689 26.6227 30.2907 27.5576 30.5228C28.4925 30.755 29.3642 31.1917 30.1099 31.8014C30.8556 32.4112 31.4567 33.1788 31.8699 34.0489C32.2831 34.919 32.4981 35.87 32.4993 36.8333V47.6666H41.1682C41.7424 47.6661 42.293 47.4375 42.6988 47.0313C43.1047 46.625 43.3327 46.0742 43.3327 45.5V23.8311C43.3321 23.2569 43.1036 22.7063 42.6973 22.3005C42.291 21.8946 41.7403 21.6666 41.166 21.6666Z" fill="#688698"/>
<path d="M45.5008 26H6.50082C6.06171 25.9997 5.63308 25.8659 5.27171 25.6165C4.91034 25.367 4.6333 25.0136 4.47729 24.6032C4.32129 24.1927 4.29368 23.7445 4.39812 23.318C4.50257 22.8915 4.73414 22.5068 5.06215 22.2149L24.5622 4.88155C24.958 4.52811 25.4701 4.33276 26.0008 4.33276C26.5315 4.33276 27.0436 4.52811 27.4395 4.88155L46.9395 22.2149C47.2675 22.5068 47.4991 22.8915 47.6035 23.318C47.708 23.7445 47.6804 24.1927 47.5243 24.6032C47.3683 25.0136 47.0913 25.367 46.7299 25.6165C46.3686 25.8659 45.9399 25.9997 45.5008 26Z" fill="#688698"/>
</svg>
