<svg width="52" height="52" viewBox="0 0 52 52" fill="none" xmlns="http://www.w3.org/2000/svg">
<path d="M32.5001 47.6666H19.5001V37.089C19.4725 35.5538 19.975 34.0561 20.9231 32.8483C21.8711 31.6406 23.2066 30.7967 24.7044 30.459C25.6488 30.2689 26.6235 30.2907 27.5584 30.5228C28.4932 30.755 29.3649 31.1917 30.1107 31.8014C30.8564 32.4112 31.4575 33.1788 31.8707 34.0489C32.2839 34.9191 32.4989 35.87 32.5001 36.8333V47.6666Z" fill="#FF6F0C"/>
<path d="M41.1665 21.6666H10.831C10.2567 21.6672 9.7062 21.8957 9.30034 22.302C8.89448 22.7083 8.6665 23.259 8.6665 23.8333V45.5021C8.66708 46.0764 8.89561 46.6269 9.30187 47.0328C9.70814 47.4387 10.2589 47.6666 10.8332 47.6666H19.4998V37.089C19.4722 35.5538 19.9748 34.0561 20.9228 32.8483C21.8709 31.6406 23.2064 30.7967 24.7042 30.459C25.6485 30.2689 26.6232 30.2907 27.5581 30.5228C28.493 30.755 29.3647 31.1917 30.1104 31.8014C30.8561 32.4112 31.4572 33.1788 31.8704 34.0489C32.2836 34.919 32.4986 35.87 32.4998 36.8333V47.6666H41.1687C41.7429 47.6661 42.2935 47.4375 42.6993 47.0313C43.1052 46.625 43.3332 46.0742 43.3332 45.5V23.8311C43.3326 23.2569 43.1041 22.7063 42.6978 22.3005C42.2915 21.8946 41.7408 21.6666 41.1665 21.6666Z" fill="#FFCD9E"/>
<path d="M45.4998 26H6.49984C6.06074 25.9997 5.6321 25.8659 5.27073 25.6165C4.90937 25.367 4.63233 25.0136 4.47632 24.6032C4.32031 24.1927 4.2927 23.7445 4.39715 23.318C4.50159 22.8915 4.73316 22.5068 5.06118 22.2149L24.5612 4.88155C24.957 4.52811 25.4692 4.33276 25.9998 4.33276C26.5305 4.33276 27.0426 4.52811 27.4385 4.88155L46.9385 22.2149C47.2665 22.5068 47.4981 22.8915 47.6025 23.318C47.707 23.7445 47.6794 24.1927 47.5234 24.6032C47.3674 25.0136 47.0903 25.367 46.729 25.6165C46.3676 25.8659 45.9389 25.9997 45.4998 26Z" fill="#FFCD9E"/>
</svg>
