<svg width="60" height="60" viewBox="0 0 60 60" fill="none" xmlns="http://www.w3.org/2000/svg">
<path d="M53 43.22H51.31L48 22.13C47.97 21.47 47.64 20.88 47 20.36C47 20.54 47 20.73 46.99 20.92V22.26L45.69 22.77L44.55 23.2C44.51 23.22 44.47 23.23 44.43 23.25C44.14 23.37 43.83 23.48 43.49 23.59C42.86 23.8 42.14 24 41.34 24.17L41.22 24.2H41.2C41.18 24.2 41.16 24.21 41.14 24.22C41.09 24.23 41.03 24.24 40.98 24.25C40.27 24.4 39.5 24.53 38.7 24.65C38.65 24.65 38.6 24.66 38.55 24.67C38.13 24.73 37.69 24.78 37.24 24.83C36.35 24.94 35.41 25.02 34.45 25.08C33.56 25.14 32.65 25.18 31.73 25.19C31.16 25.21 30.58 25.22 30 25.22C26.19 25.22 22.6 24.92 19.62 24.37L18.82 24.21C18.79 24.2 18.77 24.19 18.74 24.19L18.52 24.14C18.27 24.09 18.03 24.03 17.8 23.97C17.57 23.92 17.36 23.86 17.16 23.8C15.95 23.45 15.23 23.12 14.8 22.88C14.69 22.83 14.59 22.77 14.51 22.72L14.48 22.7L13.17 21.97L13.03 20.99C13 20.79 13 20.59 13 20.39C12.47 20.94 12.1 21.52 12.02 22.03V22.04C12 22.1 12 22.16 12 22.22C12 22.33 12.01 22.44 12.02 22.55L12 22.54L8.69 43.22H7C6.45 43.22 6 43.66 6 44.22V48.22C6 48.77 6.45 49.22 7 49.22H53C53.55 49.22 54 48.77 54 48.22V44.22C54 43.66 53.55 43.22 53 43.22ZM18.43 33.41C18.43 31.9 19.58 30.68 21 30.68C22.42 30.68 23.57 31.9 23.57 33.4H36.43C36.42 31.89 37.57 30.67 38.99 30.67C40.41 30.67 41.57 31.89 41.57 33.39C41.57 34.09 41.31 34.73 40.9 35.21C41.31 35.69 41.57 36.32 41.57 37.02C41.57 38.53 40.42 39.75 39 39.75C37.58 39.75 36.43 38.53 36.43 37.03H23.57C23.58 38.54 22.43 39.76 21.01 39.76C19.59 39.76 18.43 38.54 18.43 37.04C18.43 36.34 18.69 35.71 19.1 35.22C18.69 34.74 18.43 34.11 18.43 33.41Z" fill="#FF6F0C"/>
<path d="M44.9905 20.87V20.9L43.3905 21.5C42.6705 21.78 41.8205 22.02 40.9105 22.22C40.8005 22.23 40.6905 22.26 40.5805 22.29C37.6705 22.89 33.9205 23.22 30.0005 23.22C26.3305 23.22 22.8705 22.94 19.9905 22.4L19.3305 22.27L19.0905 22.19H18.9605C17.0905 21.77 16.1705 21.36 15.7805 21.14L15.0105 20.71C14.9905 20.57 15.0005 20.43 15.0005 20.28C15.0105 20.24 15.0105 20.21 15.0105 20.17C15.0305 20.06 15.4205 17.41 17.3505 15.98C18.1805 15.36 19.1405 15.06 20.2505 15.09C20.7305 14.14 21.7405 12.56 23.4105 12.08C24.4205 11.78 25.4705 11.93 26.5205 12.52C27.2405 11.79 28.5305 10.78 30.1205 10.78C31.3905 10.79 32.5605 11.4 33.6105 12.63C34.4905 12.32 35.9605 12.01 37.3605 12.59C38.4205 13.04 39.2305 13.9 39.7505 15.16C40.7105 15.22 42.3605 15.5 43.5605 16.68C44.6005 17.69 45.0805 19.1 44.9905 20.87Z" fill="#E3A578"/>
</svg>
