<svg width="46" height="46" viewBox="0 0 46 46" fill="none" xmlns="http://www.w3.org/2000/svg">
<path d="M15.8361 5.5697H11.9224C10.2144 5.5697 8.57639 6.2482 7.36865 7.45593C6.16092 8.66367 5.48242 10.3017 5.48242 12.0097V15.6897C5.48242 17.3977 6.16092 19.0357 7.36865 20.2435C8.57639 21.4512 10.2144 22.1297 11.9224 22.1297H15.8361C17.5441 22.1297 19.1821 21.4512 20.3899 20.2435C21.5976 19.0357 22.2761 17.3977 22.2761 15.6897V12.0097C22.2761 10.3017 21.5976 8.66367 20.3899 7.45593C19.1821 6.2482 17.5441 5.5697 15.8361 5.5697ZM20.4361 15.6897C20.4361 16.2938 20.3171 16.8919 20.0859 17.45C19.8548 18.0081 19.5159 18.5152 19.0888 18.9424C18.6616 19.3695 18.1545 19.7084 17.5964 19.9395C17.0383 20.1707 16.4402 20.2897 15.8361 20.2897H11.9224C10.7024 20.2897 9.5324 19.8051 8.66973 18.9424C7.80706 18.0797 7.32242 16.9097 7.32242 15.6897V12.0097C7.32242 10.7897 7.80706 9.61968 8.66973 8.75701C9.5324 7.89434 10.7024 7.4097 11.9224 7.4097H15.8361C17.0561 7.4097 18.2261 7.89434 19.0888 8.75701C19.9515 9.61968 20.4361 10.7897 20.4361 12.0097V15.6897ZM13.9961 23.8703H13.7624C11.5664 23.8703 9.46038 24.7427 7.90758 26.2955C6.35478 27.8483 5.48242 29.9543 5.48242 32.1503C5.48242 34.3463 6.35478 36.4524 7.90758 38.0052C9.46038 39.558 11.5664 40.4303 13.7624 40.4303H13.9961C16.1921 40.4303 18.2981 39.558 19.8509 38.0052C21.4037 36.4524 22.2761 34.3463 22.2761 32.1503C22.2761 29.9543 21.4037 27.8483 19.8509 26.2955C18.2981 24.7427 16.1921 23.8703 13.9961 23.8703ZM32.0023 22.1297H32.2747C34.4707 22.1297 36.5767 21.2573 38.1295 19.7045C39.6823 18.1517 40.5547 16.0457 40.5547 13.8497C40.5547 11.6537 39.6823 9.54766 38.1295 7.99486C36.5767 6.44206 34.4707 5.5697 32.2747 5.5697H32.0023C29.8064 5.5697 27.7003 6.44206 26.1475 7.99486C24.5947 9.54766 23.7223 11.6537 23.7223 13.8497C23.7223 16.0457 24.5947 18.1517 26.1475 19.7045C27.7003 21.2573 29.8064 22.1297 32.0023 22.1297ZM32.0023 7.4097H32.2747C33.9827 7.4097 35.6207 8.0882 36.8284 9.29593C38.0362 10.5037 38.7147 12.1417 38.7147 13.8497C38.7147 15.5577 38.0362 17.1957 36.8284 18.4035C35.6207 19.6112 33.9827 20.2897 32.2747 20.2897H32.0023C30.2943 20.2897 28.6563 19.6112 27.4486 18.4035C26.2408 17.1957 25.5623 15.5577 25.5623 13.8497C25.5623 12.1417 26.2408 10.5037 27.4486 9.29593C28.6563 8.0882 30.2943 7.4097 32.0023 7.4097ZM34.1147 23.8703H30.1623C28.4543 23.8703 26.8163 24.5488 25.6086 25.7566C24.4008 26.9643 23.7223 28.6023 23.7223 30.3103V33.9903C23.7223 35.6983 24.4008 37.3364 25.6086 38.5441C26.8163 39.7518 28.4543 40.4303 30.1623 40.4303H34.1147C35.8227 40.4303 37.4607 39.7518 38.6684 38.5441C39.8762 37.3364 40.5547 35.6983 40.5547 33.9903V30.3103C40.5547 28.6023 39.8762 26.9643 38.6684 25.7566C37.4607 24.5488 35.8227 23.8703 34.1147 23.8703ZM38.7147 33.9903C38.7147 34.5944 38.5957 35.1926 38.3645 35.7507C38.1333 36.3088 37.7945 36.8159 37.3674 37.243C36.9402 37.6702 36.4331 38.009 35.875 38.2402C35.3169 38.4714 34.7187 38.5903 34.1147 38.5903H30.1623C29.5583 38.5903 28.9601 38.4714 28.402 38.2402C27.8439 38.009 27.3368 37.6702 26.9097 37.243C26.4825 36.8159 26.1437 36.3088 25.9125 35.7507C25.6813 35.1926 25.5623 34.5944 25.5623 33.9903V30.3103C25.5623 29.0903 26.047 27.9203 26.9097 27.0576C27.7723 26.195 28.9423 25.7103 30.1623 25.7103H34.1147C34.7187 25.7103 35.3169 25.8293 35.875 26.0605C36.4331 26.2917 36.9402 26.6305 37.3674 27.0576C37.7945 27.4848 38.1333 27.9919 38.3645 28.55C38.5957 29.1081 38.7147 29.7063 38.7147 30.3103V33.9903Z" fill="#E3A578"/>
<circle cx="14" cy="32" r="9" fill="#FF6F0C"/>
<circle cx="32" cy="14" r="9" fill="#FF6F0C"/>
</svg>
