<svg width="52" height="54" viewBox="0 0 52 54" fill="none" xmlns="http://www.w3.org/2000/svg">
<g filter="url(#filter0_d_17_507)">
<path d="M46.7825 26.8754C46.0198 28.496 44.8498 29.8134 43.4978 30.5934C42.6398 31.0874 41.7731 31.33 40.9411 31.33C40.3518 31.33 39.7885 31.2087 39.2511 30.9574C37.9771 30.3507 37.1278 29.1027 36.8505 27.4474C36.5991 25.9047 36.8851 24.1627 37.6478 22.542C38.4191 20.93 39.5891 19.604 40.9411 18.824C42.3971 17.992 43.9051 17.862 45.1791 18.46C46.4531 19.0667 47.3111 20.3147 47.5798 21.9787C47.8398 23.5214 47.5538 25.2634 46.7825 26.8754ZM27.8371 12.3847C28.8771 8.41536 32.0751 5.8067 34.9525 6.55203C36.4171 6.93336 37.5611 8.07736 38.1765 9.76736C38.7571 11.3534 38.8091 13.2514 38.3238 15.1147C37.8385 16.978 36.8678 18.616 35.5851 19.708C34.5451 20.6094 33.3838 21.0774 32.2485 21.0774C31.9018 21.0774 31.5465 21.034 31.2085 20.9387C28.2705 20.176 26.7885 16.4147 27.8371 12.3847Z" fill="#FF6F0C"/>
<path d="M40.7077 39.312C40.2743 41.7473 38.6883 43.81 36.461 44.8413C35.4123 45.3267 34.2857 45.5693 33.159 45.5693C31.937 45.5693 30.715 45.292 29.5797 44.7287C27.309 43.602 24.709 43.602 22.4297 44.7287C20.237 45.812 17.7323 45.8553 15.557 44.8413C13.3297 43.81 11.735 41.7473 11.3017 39.312C10.669 35.7587 12.5237 32.292 15.8083 30.8707C17.195 30.2727 18.3477 29.1113 19.0497 27.5947C20.5403 24.414 22.941 22.7153 26.0003 22.6893H26.087C30.2123 22.6893 32.2143 25.376 33.159 27.6467C33.7743 29.12 34.8923 30.2813 36.2963 30.9053C39.5203 32.3527 41.3403 35.802 40.7077 39.312Z" fill="#FFCD9E"/>
<path d="M12.7572 30.9574C12.2285 31.2087 11.6565 31.33 11.0672 31.33C10.2438 31.33 9.36851 31.0874 8.51917 30.5934C7.15851 29.8134 5.99717 28.496 5.22584 26.8754C3.56184 23.374 4.27251 19.682 6.82917 18.46C9.39451 17.2467 12.6965 19.0407 14.3605 22.542C15.1318 24.1627 15.4092 25.9047 15.1578 27.4474C14.8892 29.1027 14.0312 30.3507 12.7572 30.9574ZM13.6932 15.1147C13.4678 14.2654 13.3638 13.4247 13.3638 12.61C13.3638 9.64603 14.7852 7.14136 17.0558 6.55203C19.9505 5.8067 23.1398 8.41536 24.1712 12.3847C25.2025 16.354 23.6945 20.1934 20.8085 20.9387C20.4705 21.034 20.1325 21.0687 19.7945 21.0687C17.2032 21.0687 14.6032 18.6247 13.6932 15.1147Z" fill="#FF6F0C"/>
</g>
<defs>
<filter id="filter0_d_17_507" x="-4" y="0" width="60" height="60" filterUnits="userSpaceOnUse" color-interpolation-filters="sRGB">
<feFlood flood-opacity="0" result="BackgroundImageFix"/>
<feColorMatrix in="SourceAlpha" type="matrix" values="0 0 0 0 0 0 0 0 0 0 0 0 0 0 0 0 0 0 127 0" result="hardAlpha"/>
<feOffset dy="4"/>
<feGaussianBlur stdDeviation="2"/>
<feComposite in2="hardAlpha" operator="out"/>
<feColorMatrix type="matrix" values="0 0 0 0 0 0 0 0 0 0 0 0 0 0 0 0 0 0 0.25 0"/>
<feBlend mode="normal" in2="BackgroundImageFix" result="effect1_dropShadow_17_507"/>
<feBlend mode="normal" in="SourceGraphic" in2="effect1_dropShadow_17_507" result="shape"/>
</filter>
</defs>
</svg>
