<svg width="46" height="46" viewBox="0 0 46 46" fill="none" xmlns="http://www.w3.org/2000/svg">
<path d="M15.8371 5.5697H11.9234C10.2154 5.5697 8.57737 6.2482 7.36963 7.45593C6.1619 8.66367 5.4834 10.3017 5.4834 12.0097V15.6897C5.4834 17.3977 6.1619 19.0357 7.36963 20.2435C8.57737 21.4512 10.2154 22.1297 11.9234 22.1297H15.8371C17.5451 22.1297 19.1831 21.4512 20.3908 20.2435C21.5986 19.0357 22.2771 17.3977 22.2771 15.6897V12.0097C22.2771 10.3017 21.5986 8.66367 20.3908 7.45593C19.1831 6.2482 17.5451 5.5697 15.8371 5.5697ZM20.4371 15.6897C20.4371 16.2938 20.3181 16.8919 20.0869 17.45C19.8558 18.0081 19.5169 18.5152 19.0898 18.9424C18.6626 19.3695 18.1555 19.7084 17.5974 19.9395C17.0393 20.1707 16.4412 20.2897 15.8371 20.2897H11.9234C10.7034 20.2897 9.53337 19.8051 8.67071 18.9424C7.80804 18.0797 7.3234 16.9097 7.3234 15.6897V12.0097C7.3234 10.7897 7.80804 9.61968 8.67071 8.75701C9.53337 7.89434 10.7034 7.4097 11.9234 7.4097H15.8371C17.0571 7.4097 18.2271 7.89434 19.0898 8.75701C19.9524 9.61968 20.4371 10.7897 20.4371 12.0097V15.6897ZM13.9971 23.8703H13.7634C11.5674 23.8703 9.46136 24.7427 7.90855 26.2955C6.35575 27.8483 5.4834 29.9543 5.4834 32.1503C5.4834 34.3463 6.35575 36.4524 7.90855 38.0052C9.46136 39.558 11.5674 40.4303 13.7634 40.4303H13.9971C16.1931 40.4303 18.2991 39.558 19.8519 38.0052C21.4047 36.4524 22.2771 34.3463 22.2771 32.1503C22.2771 29.9543 21.4047 27.8483 19.8519 26.2955C18.2991 24.7427 16.1931 23.8703 13.9971 23.8703ZM32.0033 22.1297H32.2756C34.4716 22.1297 36.5777 21.2573 38.1305 19.7045C39.6833 18.1517 40.5556 16.0457 40.5556 13.8497C40.5556 11.6537 39.6833 9.54766 38.1305 7.99486C36.5777 6.44206 34.4716 5.5697 32.2756 5.5697H32.0033C29.8073 5.5697 27.7013 6.44206 26.1485 7.99486C24.5957 9.54766 23.7233 11.6537 23.7233 13.8497C23.7233 16.0457 24.5957 18.1517 26.1485 19.7045C27.7013 21.2573 29.8073 22.1297 32.0033 22.1297ZM32.0033 7.4097H32.2756C33.9836 7.4097 35.6217 8.0882 36.8294 9.29593C38.0371 10.5037 38.7156 12.1417 38.7156 13.8497C38.7156 15.5577 38.0371 17.1957 36.8294 18.4035C35.6217 19.6112 33.9836 20.2897 32.2756 20.2897H32.0033C30.2953 20.2897 28.6573 19.6112 27.4496 18.4035C26.2418 17.1957 25.5633 15.5577 25.5633 13.8497C25.5633 12.1417 26.2418 10.5037 27.4496 9.29593C28.6573 8.0882 30.2953 7.4097 32.0033 7.4097ZM34.1156 23.8703H30.1633C28.4553 23.8703 26.8173 24.5488 25.6096 25.7566C24.4018 26.9643 23.7233 28.6023 23.7233 30.3103V33.9903C23.7233 35.6983 24.4018 37.3364 25.6096 38.5441C26.8173 39.7518 28.4553 40.4303 30.1633 40.4303H34.1156C35.8236 40.4303 37.4617 39.7518 38.6694 38.5441C39.8771 37.3364 40.5556 35.6983 40.5556 33.9903V30.3103C40.5556 28.6023 39.8771 26.9643 38.6694 25.7566C37.4617 24.5488 35.8236 23.8703 34.1156 23.8703ZM38.7156 33.9903C38.7156 34.5944 38.5967 35.1926 38.3655 35.7507C38.1343 36.3088 37.7955 36.8159 37.3683 37.243C36.9412 37.6702 36.4341 38.009 35.876 38.2402C35.3179 38.4714 34.7197 38.5903 34.1156 38.5903H30.1633C29.5592 38.5903 28.9611 38.4714 28.403 38.2402C27.8449 38.009 27.3378 37.6702 26.9106 37.243C26.4835 36.8159 26.1446 36.3088 25.9135 35.7507C25.6823 35.1926 25.5633 34.5944 25.5633 33.9903V30.3103C25.5633 29.0903 26.048 27.9203 26.9106 27.0576C27.7733 26.195 28.9433 25.7103 30.1633 25.7103H34.1156C34.7197 25.7103 35.3179 25.8293 35.876 26.0605C36.4341 26.2917 36.9412 26.6305 37.3683 27.0576C37.7955 27.4848 38.1343 27.9919 38.3655 28.55C38.5967 29.1081 38.7156 29.7063 38.7156 30.3103V33.9903Z" fill="#136DA5"/>
<circle cx="14" cy="32" r="9" fill="#688698"/>
<circle cx="32" cy="14" r="9" fill="#136DA5"/>
</svg>
